<?xml version="1.0" standalone="no"?>
<!DOCTYPE svg PUBLIC "-//W3C//DTD SVG 1.1//EN" "http://www.w3.org/Graphics/SVG/1.1/DTD/svg11.dtd" >
<svg>
<metadata>
Created by FontForge 20110222 at Wed Jul  2 00:34:25 2014
 By Orthosie Webhosting
Part of the digitally encoded machine readable outline data for producing the Typefaces provided is copyrighted (c) 2007 Linotype GmbH, www.linotype.com. All rights reserved. This software is the property of Linotype GmbH, and may not be reproduced, used, displayed, modified, disclosed or transferred without the express written approval of Linotype GmbH.  Copyright (c) 1987, 1991, 1993 Fundicion Tipografica Neufville S. A. This record material and the data recorded thereon is the property of Fundicion Tipografica Neufville S. A. and Adobe Systems Incorporated, or its licensors, and may not be reproduced, used, displayed, modified, disclosed or transferred in any manner without the express written approval of Fundicion Tipografica Neufville S. A. and Adobe Systems Incorporated. This typeface is original artwork of Paul Renner. The design may be protected in certain jurisdictions.
</metadata>
<defs>
<font id="FuturaLTProBook" horiz-adv-x="616" >
  <font-face 
    font-family="FuturaLTProBook"
    font-weight="400"
    font-stretch="normal"
    units-per-em="1000"
    panose-1="2 11 5 2 2 2 4 2 3 3"
    ascent="825"
    descent="-175"
    x-height="470"
    cap-height="754"
    bbox="-161 -293 1178 1052"
    underline-thickness="50"
    underline-position="-50"
    unicode-range="U+000D-FB02"
  />
<missing-glyph horiz-adv-x="512" 
d="M278 117h-56v67h56v-67zM271 234h-46l-2 17q0 56 13 81q15 28 46 59q30 28 40 45.5t10 37.5q0 36 -22.5 60.5t-53.5 24.5q-71 0 -82 -95l-50 8q6 69 42 103t93 34q55 0 89.5 -36t34.5 -95q0 -34 -13 -60t-50 -60q-37 -33 -43 -52q-6 -20 -6 -72zM50 50h412v617h-412v-617
zM0 718h512v-718h-512v718z" />
    <glyph glyph-name="IJ" unicode="IJ" horiz-adv-x="547" 
d="M162 754v-754h-84v754h84zM469 754v-597q0 -40 -1.5 -62.5t-10 -55t-26.5 -55.5q-47 -62 -130 -62q-67 0 -134 56l47 65q46 -43 89 -43q20 0 34.5 7t23 21.5t14 27.5t7.5 34.5t2.5 33.5t0.5 33v597h84z" />
    <glyph glyph-name="ij" unicode="ij" horiz-adv-x="482" 
d="M171 470v-470h-80v470h80zM131 704q23 0 40 -17t17 -40q0 -24 -17 -40.5t-40 -16.5t-40 16.5t-17 40.5q0 23 17 40t40 17zM391 470v-734h-80v734h80zM351 704q23 0 40 -17t17 -40q0 -24 -17 -40.5t-40 -16.5t-40 16.5t-17 40.5q0 23 17 40t40 17z" />
    <glyph glyph-name="napostrophe" unicode="&#x22;n" horiz-adv-x="528" 
d="M156 470v-57h2q51 70 134 70q90 0 125 -55t35 -149v-279h-80v265q0 34 -2.5 55.5t-11.5 44t-30.5 33.5t-54.5 11q-32 0 -54.5 -12t-34.5 -29t-18.5 -44t-8 -48.5t-1.5 -52.5v-223h-80v470h80zM172 735l-99 -188l-55 16l67 189z" />
    <glyph glyph-name="fi" unicode="fi" horiz-adv-x="519" 
d="M151 396v-396h-80v396h-44v74h44v187q0 88 21 122q37 59 121 59q25 0 57 -10v-81q-33 11 -54 11q-19 0 -31.5 -6.5t-19.5 -14.5t-10 -27.5t-3.5 -34t-0.5 -46.5v-159h119v-74h-119zM428 470v-470h-80v470h80zM388 704q23 0 40 -17t17 -40q0 -24 -17 -40.5t-40 -16.5
t-40 16.5t-17 40.5q0 23 17 40t40 17z" />
    <glyph glyph-name="fl" unicode="fl" horiz-adv-x="501" 
d="M428 825v-825h-80v825h80zM151 396v-396h-80v396h-44v74h44v187q0 88 21 122q37 59 121 59q25 0 57 -10v-81q-33 11 -54 11q-19 0 -31.5 -6.5t-19.5 -14.5t-10 -27.5t-3.5 -34t-0.5 -46.5v-159h119v-74h-119z" />
    <glyph glyph-name=".notdef" horiz-adv-x="512" 
d="M278 117h-56v67h56v-67zM271 234h-46l-2 17q0 56 13 81q15 28 46 59q30 28 40 45.5t10 37.5q0 36 -22.5 60.5t-53.5 24.5q-71 0 -82 -95l-50 8q6 69 42 103t93 34q55 0 89.5 -36t34.5 -95q0 -34 -13 -60t-50 -60q-37 -33 -43 -52q-6 -20 -6 -72zM50 50h412v617h-412v-617
zM0 718h512v-718h-512v718z" />
    <glyph glyph-name=".null" horiz-adv-x="500" 
 />
    <glyph glyph-name="nonmarkingreturn" horiz-adv-x="333" 
 />
    <glyph glyph-name="CR" unicode="&#xd;" horiz-adv-x="0" 
 />
    <glyph glyph-name="space" unicode=" " horiz-adv-x="308" 
 />
    <glyph glyph-name="exclam" unicode="!" horiz-adv-x="338" 
d="M169 99q23 0 39.5 -16t16.5 -39t-16.5 -40t-39.5 -17t-39.5 17t-16.5 40t16.5 39t39.5 16zM128 153v601h82v-601h-82z" />
    <glyph glyph-name="quotedbl" unicode="&#x22;" horiz-adv-x="457" 
d="M102 754h94l-18 -328h-58zM261 754h94l-18 -328h-58z" />
    <glyph glyph-name="numbersign" unicode="#" 
d="M236 754h77l-36 -204h124l35 204h79l-35 -204h92v-78h-105l-29 -171h101v-78h-115l-40 -223h-76l39 223h-123l-42 -223h-75l39 223h-102v78h115l29 171h-107v78h119zM266 472l-29 -171h123l29 171h-123z" />
    <glyph glyph-name="dollar" unicode="$" 
d="M356 344v-268q47 16 74.5 54.5t27.5 88.5q0 76 -102 125zM290 463v219q-40 -8 -66.5 -40t-26.5 -73q0 -64 93 -106zM290 69v305q-39 16 -66.5 32t-55 39t-41.5 55t-14 72q0 76 50 127t127 62v103h66v-103q50 -7 92.5 -38t65.5 -76l-66 -43q-38 67 -92 77v-247
q43 -18 72 -35t57.5 -42t42.5 -59t14 -77q0 -83 -52.5 -146t-133.5 -80v-110h-66v104q-80 4 -141 59t-75 135l81 23q7 -53 45 -93t90 -44z" />
    <glyph glyph-name="percent" unicode="%" horiz-adv-x="797" 
d="M200 703q-42 0 -73 -29.5t-31 -71.5q0 -41 31 -70.5t73 -29.5t73 29.5t31 70.5q0 42 -31 71.5t-73 29.5zM597 767l40 -24l-436 -756l-43 26zM598 252q-42 0 -73 -29.5t-31 -71.5q0 -41 31 -70.5t73 -29.5t73 29.5t31 70.5q0 42 -31 71.5t-73 29.5zM200 767
q69 0 118.5 -48t49.5 -117q0 -68 -49.5 -116t-118.5 -48t-118.5 47.5t-49.5 116.5t49.5 117t118.5 48zM598 316q69 0 118.5 -48t49.5 -117q0 -68 -49.5 -116t-118.5 -48t-118.5 47.5t-49.5 116.5t49.5 117t118.5 48z" />
    <glyph glyph-name="ampersand" unicode="&#x26;" horiz-adv-x="695" 
d="M302 492l7 5q4 3 21.5 16t23 17.5t18 17t17.5 21t9.5 22.5t4.5 28q0 34 -24 55.5t-58 21.5q-35 0 -59 -24t-24 -59q0 -11 2 -21t8.5 -21.5t9.5 -16.5t13.5 -20t12.5 -17zM581 0l-81 106q-133 -119 -241 -119q-89 0 -154.5 59t-65.5 147q0 36 11.5 68.5t25.5 54.5
t43.5 47.5t48.5 39t56 38.5l9 6q-2 3 -10 14t-11 15t-10 14.5t-10 15.5l-9 15t-8.5 16.5t-6.5 16.5t-5.5 17.5t-3 17t-1.5 18.5q0 71 47 115.5t118 44.5q66 0 113 -42t47 -106q0 -32 -10 -59t-34 -52t-39 -38t-50 -39l159 -203l85 99l61 -50l-96 -112l128 -165h-106z
M282 385l-36 -24q-40 -27 -60.5 -43.5t-42.5 -49.5t-22 -69q0 -54 40 -95t93 -41q35 0 75 19.5t61 36t60 50.5z" />
    <glyph glyph-name="quotesingle" unicode="'" horiz-adv-x="289" 
d="M98 754h94l-18 -328h-58z" />
    <glyph glyph-name="parenleft" unicode="(" horiz-adv-x="287" 
d="M184 788l71 -34q-80 -212 -80 -480t80 -480l-71 -34q-91 194 -91 514t91 514z" />
    <glyph glyph-name="parenright" unicode=")" horiz-adv-x="287" 
d="M32 754l71 34q91 -194 91 -514t-91 -514l-71 34q80 212 80 480t-80 480z" />
    <glyph glyph-name="asterisk" unicode="*" horiz-adv-x="592" 
d="M265 614l-6 140h75l-6 -140l132 49l24 -72l-136 -38l87 -110l-61 -45l-78 118l-78 -118l-61 45l88 110l-136 38l24 72z" />
    <glyph glyph-name="plus" unicode="+" 
d="M269 498h78v-203h203v-78h-203v-203h-78v203h-203v78h203v203z" />
    <glyph glyph-name="comma" unicode="," horiz-adv-x="308" 
d="M151 110l74 -26l-113 -256l-54 22z" />
    <glyph glyph-name="hyphen" unicode="-" horiz-adv-x="208" 
d="M2 278h205v-74h-205v74z" />
    <glyph glyph-name="period" unicode="." horiz-adv-x="308" 
d="M154 99q23 0 39.5 -16t16.5 -39t-16.5 -40t-39.5 -17t-39.5 17t-16.5 40t16.5 39t39.5 16z" />
    <glyph glyph-name="slash" unicode="/" horiz-adv-x="570" 
d="M486 825l66 -30l-469 -952l-65 30z" />
    <glyph glyph-name="zero" unicode="0" 
d="M308 767q68 0 122 -38.5t85 -99.5t47 -126t16 -127q0 -71 -18.5 -139.5t-51.5 -124.5t-85.5 -90.5t-114.5 -34.5t-114.5 34.5t-85.5 90.5t-51.5 124.5t-18.5 139.5q0 62 16 127t47 126t85 99.5t122 38.5zM308 689q-50 0 -88.5 -34t-59 -85.5t-30 -102.5t-8.5 -95
q1 -45 11 -93.5t30 -98.5t58 -82.5t87 -32.5t87 32.5t58 82.5t30 98.5t11 93.5q1 44 -8.5 95t-30 102.5t-59 85.5t-88.5 34z" />
    <glyph glyph-name="one" unicode="1" 
d="M283 676h-125l44 78h165v-754h-84v676z" />
    <glyph glyph-name="two" unicode="2" 
d="M211 78h318v-78h-488l353 417q51 61 51 126q0 62 -44 104t-106 42q-67 0 -108.5 -44t-43.5 -111h-84q2 100 68 166.5t165 66.5q97 0 167 -63.5t70 -159.5q0 -93 -57 -159z" />
    <glyph glyph-name="three" unicode="3" 
d="M271 357v78q69 3 109 29.5t40 92.5q0 60 -36.5 96t-95.5 36q-55 0 -87 -33t-37 -88h-83q9 92 63.5 145.5t145.5 53.5q92 0 153 -57t61 -149q0 -51 -26 -96.5t-71 -68.5q53 -24 80.5 -74t27.5 -111q0 -98 -68 -161t-166 -63q-93 0 -158 58t-66 151h82q3 -57 45 -94
t100 -37q62 0 104.5 44t42.5 107q0 70 -44.5 106.5t-115.5 34.5z" />
    <glyph glyph-name="four" unicode="4" 
d="M476 200h93v-78h-93v-122h-84v122h-386l468 674h2v-596zM392 200v341h-2l-237 -341h239z" />
    <glyph glyph-name="five" unicode="5" 
d="M523 676h-241l-49 -161l45 4q110 0 180.5 -76t70.5 -187q0 -116 -80 -192.5t-197 -76.5q-74 0 -133.5 35.5t-97.5 99.5l67 48q26 -47 70.5 -76t96.5 -29q83 0 136.5 55t53.5 138q0 79 -54 131t-134 52q-69 0 -143 -48l109 361h300v-78z" />
    <glyph glyph-name="six" unicode="6" 
d="M363 767l63 -47l-174 -234l2 -2q10 4 32 8q16 3 34 3q102 0 173 -73t71 -176q0 -108 -76.5 -183.5t-183.5 -75.5t-183.5 76t-76.5 182q0 85 69 181zM304 65q73 0 124.5 52t51.5 126q0 73 -51.5 123.5t-124.5 50.5q-74 0 -125 -50.5t-51 -123.5q0 -74 51.5 -126t124.5 -52
z" />
    <glyph glyph-name="seven" unicode="7" 
d="M463 676h-412v78h556l-506 -767l-66 39z" />
    <glyph glyph-name="eight" unicode="8" 
d="M308 355q-61 0 -103.5 -42.5t-42.5 -102.5t42.5 -102.5t103.5 -42.5t103.5 42.5t42.5 102.5t-42.5 102.5t-103.5 42.5zM308 767q89 0 150 -60t61 -150q0 -50 -24.5 -95.5t-67.5 -69.5q52 -24 81.5 -73t29.5 -108q0 -97 -66 -160.5t-164 -63.5t-164 63.5t-66 160.5
q0 59 29.5 108t81.5 73q-43 24 -67.5 69.5t-24.5 95.5q0 90 61 150t150 60zM308 689q-54 0 -92.5 -38t-38.5 -92q0 -55 38.5 -93.5t92.5 -38.5t92.5 38.5t38.5 93.5q0 54 -38.5 92t-92.5 38z" />
    <glyph glyph-name="nine" unicode="9" 
d="M245 -13l-63 43l174 239l-2 2q-33 -10 -65 -10q-103 0 -173.5 73t-70.5 176q0 107 76.5 182t183.5 75t183.5 -75t76.5 -182q0 -84 -70 -181zM305 689q-73 0 -124.5 -51.5t-51.5 -124.5t51 -123.5t125 -50.5q73 0 124.5 50.5t51.5 123.5t-51.5 124.5t-124.5 51.5z" />
    <glyph glyph-name="colon" unicode=":" horiz-adv-x="308" 
d="M154 99q23 0 39.5 -16t16.5 -39t-16.5 -40t-39.5 -17t-39.5 17t-16.5 40t16.5 39t39.5 16zM154 483q23 0 39.5 -16t16.5 -39t-16.5 -40t-39.5 -17t-39.5 17t-16.5 40t16.5 39t39.5 16z" />
    <glyph glyph-name="semicolon" unicode=";" horiz-adv-x="308" 
d="M153 110l74 -26l-113 -256l-54 22zM179 483q23 0 39.5 -16t16.5 -39t-16.5 -40t-39.5 -17t-39.5 17t-16.5 40t16.5 39t39.5 16z" />
    <glyph glyph-name="less" unicode="&#x3c;" 
d="M550 498v-85l-368 -157l368 -157v-85l-484 207v70z" />
    <glyph glyph-name="equal" unicode="=" 
d="M66 373h484v-78h-484v78zM66 217h484v-78h-484v78z" />
    <glyph glyph-name="greater" unicode="&#x3e;" 
d="M66 413v85l484 -207v-70l-484 -207v85l368 157z" />
    <glyph glyph-name="question" unicode="?" horiz-adv-x="488" 
d="M325 328h81q2 -73 -44.5 -123t-118.5 -50q-70 0 -116.5 47t-46.5 116q0 62 36 97t101 56q70 22 89 35q38 27 38 80q0 46 -29 75t-74 29q-42 0 -70 -28.5t-28 -70.5q0 -24 6 -48h-83l-4 53q0 76 53.5 123.5t130.5 47.5q76 0 128 -51.5t52 -128.5q0 -85 -54 -134
q-6 -5 -12 -9.5t-14 -9t-14 -7.5t-16 -7t-14.5 -5.5l-16.5 -5.5l-15 -5t-16.5 -5t-14.5 -4q-77 -21 -77 -83q0 -34 24 -57t58 -23q40 0 60.5 27.5t20.5 68.5zM242 99q23 0 39.5 -16t16.5 -39t-16.5 -40t-39.5 -17t-39.5 17t-16.5 40t16.5 39t39.5 16z" />
    <glyph glyph-name="at" unicode="@" horiz-adv-x="800" 
d="M261 346q0 -53 28.5 -86.5t79.5 -33.5q61 0 93.5 42t40.5 104q7 60 -21.5 97.5t-80.5 37.5q-58 0 -99 -50t-41 -111zM528 505l14 61h71l-50 -255q-9 -25 -8.5 -55t22.5 -30q36 0 74 61t42 130q7 128 -72.5 203t-205.5 75q-133 0 -220 -90.5t-87 -227.5q0 -142 93 -230
t231 -88q127 0 191 46l70 -51q-130 -67 -269 -67q-163 0 -275.5 111.5t-112.5 278.5q0 166 110.5 278t271.5 112q139 0 235 -86q112 -97 112 -229q0 -129 -62 -210q-34 -45 -75 -66.5t-79 -19.5q-45 2 -54 61q-61 -61 -136 -61q-67 0 -117.5 54t-50.5 129q0 94 57 165
t147 71q79 0 133 -70z" />
    <glyph glyph-name="A" unicode="A" horiz-adv-x="699" 
d="M511 214h-322l-91 -214h-92l348 790l339 -790h-93zM478 292l-126 302l-129 -302h255z" />
    <glyph glyph-name="B" unicode="B" horiz-adv-x="568" 
d="M160 350v-272h84q193 0 193 138q0 134 -204 134h-73zM76 0v754h124q113 0 182.5 -48t69.5 -156q0 -98 -74 -147q66 -16 104.5 -70t38.5 -123q0 -107 -75 -158.5t-195 -51.5h-175zM160 676v-254h32q42 0 69 4t54 16t40 39t13 69q0 78 -42.5 102t-132.5 24h-33z" />
    <glyph glyph-name="C" unicode="C" horiz-adv-x="717" 
d="M651 693v-104q-97 100 -230 100q-125 0 -214.5 -93t-89.5 -219t90 -219t216 -93q128 0 228 100v-104q-102 -74 -225 -74q-160 0 -276.5 113.5t-116.5 273.5q0 162 115.5 277.5t277.5 115.5q126 0 225 -74z" />
    <glyph glyph-name="D" unicode="D" horiz-adv-x="678" 
d="M76 0v754h142q94 0 163 -19t131 -72q125 -108 125 -287q0 -171 -123 -281q-63 -56 -131.5 -75.5t-166.5 -19.5h-140zM160 78h61q77 0 133.5 16.5t104.5 61.5q94 88 94 221q0 140 -98 226q-48 43 -103.5 58t-130.5 15h-61v-598z" />
    <glyph glyph-name="E" unicode="E" horiz-adv-x="534" 
d="M76 0v754h391v-78h-307v-224h298v-78h-298v-296h307v-78h-391z" />
    <glyph glyph-name="F" unicode="F" horiz-adv-x="478" 
d="M419 676h-259v-224h251v-78h-251v-374h-84v754h343v-78z" />
    <glyph glyph-name="G" unicode="G" horiz-adv-x="820" 
d="M463 379h314q2 -86 -14 -148t-64 -118q-51 -60 -125.5 -93t-153.5 -33q-159 0 -273.5 114.5t-114.5 273.5q0 162 115 277t278 115q194 0 319 -163l-61 -57q-101 142 -259 142q-128 0 -218 -93t-90 -222q0 -123 88 -213q43 -43 100 -69.5t114 -26.5q103 0 186 67.5
t83 168.5h-224v78z" />
    <glyph glyph-name="H" unicode="H" horiz-adv-x="714" 
d="M164 448h386v306h84v-754h-84v370h-386v-370h-84v754h84v-306z" />
    <glyph glyph-name="I" unicode="I" horiz-adv-x="239" 
d="M162 754v-754h-84v754h84z" />
    <glyph glyph-name="J" unicode="J" horiz-adv-x="314" 
d="M236 754v-597q0 -40 -1.5 -62.5t-10 -55t-26.5 -55.5q-47 -62 -130 -62q-68 0 -134 56l47 65q46 -43 89 -43q20 0 34.5 7t23 21.5t14 27.5t7.5 34.5t2.5 33.5t0.5 33v597h84z" />
    <glyph glyph-name="K" unicode="K" horiz-adv-x="611" 
d="M160 431l321 323h113l-354 -351l366 -403h-116l-309 346l-21 -21v-325h-84v754h84v-323z" />
    <glyph glyph-name="L" unicode="L" horiz-adv-x="375" 
d="M160 754v-676h208v-78h-292v754h84z" />
    <glyph glyph-name="M" unicode="M" horiz-adv-x="896" 
d="M21 0l153 797l274 -633l275 633l153 -797h-86l-97 510h-2l-243 -541l-242 541h-2l-97 -510h-86z" />
    <glyph glyph-name="N" unicode="N" horiz-adv-x="834" 
d="M81 0v786l588 -616v584h84v-788l-588 615v-581h-84z" />
    <glyph glyph-name="O" unicode="O" horiz-adv-x="862" 
d="M431 767q162 0 277.5 -114.5t115.5 -276.5t-115.5 -275.5t-277.5 -113.5t-277.5 113.5t-115.5 275.5t115.5 276.5t277.5 114.5zM431 689q-129 0 -219 -91.5t-90 -220.5q0 -128 90.5 -220t218.5 -92t218.5 92t90.5 220q0 129 -90 220.5t-219 91.5z" />
    <glyph glyph-name="P" unicode="P" horiz-adv-x="503" 
d="M160 330v-330h-84v754h124q62 0 106 -7t81 -33q41 -29 63 -74.5t22 -97.5q0 -102 -72 -162q-61 -50 -179 -50h-61zM160 676v-268h56q172 0 172 136q0 36 -11.5 61t-29 38.5t-45.5 21t-52 9.5t-59 2h-31z" />
    <glyph glyph-name="Q" unicode="Q" horiz-adv-x="862" 
d="M527 304l130 -136q83 87 83 209q0 129 -90 220.5t-219 91.5t-219 -91.5t-90 -220.5q0 -128 90.5 -220t218.5 -92q94 0 168 56l-182 183h110zM721 -7l-63 68q-46 -35 -107.5 -54.5t-119.5 -19.5q-162 0 -277.5 113.5t-115.5 275.5t115.5 276.5t277.5 114.5
q163 0 278 -115.5t115 -277.5q0 -149 -109 -266l113 -115h-107z" />
    <glyph glyph-name="R" unicode="R" horiz-adv-x="542" 
d="M160 676v-271h26q40 0 70.5 5t60 18.5t45 41.5t15.5 70q0 36 -11 61.5t-27 40t-43 22.5t-51.5 10t-59.5 2h-25zM160 331v-331h-84v754h109q58 0 104 -9t87 -31t63 -64.5t22 -103.5q0 -87 -51 -144t-138 -64l240 -338h-103l-228 331h-21z" />
    <glyph glyph-name="S" unicode="S" horiz-adv-x="559" 
d="M485 650l-67 -43q-47 82 -130 82q-51 0 -88 -33t-37 -84q0 -23 10 -42t31 -33.5t35.5 -22.5t41.5 -20l50 -22q43 -19 71 -35.5t55.5 -41t41 -58.5t13.5 -77q0 -98 -69 -165.5t-168 -67.5q-90 0 -153.5 53.5t-81.5 141.5l82 23q8 -59 50 -99.5t101 -40.5q62 0 108.5 42.5
t46.5 104.5q0 25 -8.5 46.5t-19 34.5t-33.5 28t-36 21.5t-42 19.5l-46 20q-80 36 -122 78t-42 115q0 85 62 138.5t149 53.5q63 0 114 -30.5t81 -86.5z" />
    <glyph glyph-name="T" unicode="T" horiz-adv-x="470" 
d="M276 676v-676h-84v676h-182v78h450v-78h-184z" />
    <glyph glyph-name="U" unicode="U" horiz-adv-x="685" 
d="M158 754v-449q0 -43 0.5 -61t8.5 -51.5t24 -55.5q24 -33 66.5 -52.5t85.5 -19.5q41 0 81.5 18t66.5 49q17 21 26 51.5t10 51t1 58.5v12v449h84v-472q0 -72 -12.5 -119t-53.5 -90q-80 -86 -203 -86q-116 0 -195 77q-45 43 -59.5 93t-14.5 125v472h84z" />
    <glyph glyph-name="V" unicode="V" horiz-adv-x="624" 
d="M97 754l215 -575l215 575h91l-306 -799l-306 799h91z" />
    <glyph glyph-name="W" unicode="W" horiz-adv-x="1091" 
d="M104 754l198 -565l244 604l244 -604l198 565h91l-289 -793l-244 607l-244 -607l-289 793h91z" />
    <glyph glyph-name="X" unicode="X" horiz-adv-x="564" 
d="M236 390l-204 364h96l154 -284l154 284h96l-204 -364l223 -390h-96l-173 310l-173 -310h-96z" />
    <glyph glyph-name="Y" unicode="Y" horiz-adv-x="593" 
d="M255 324l-247 430h97l192 -336l192 336h97l-247 -430v-324h-84v324z" />
    <glyph glyph-name="Z" unicode="Z" horiz-adv-x="586" 
d="M153 78h401v-78h-540l411 676h-359v78h499z" />
    <glyph glyph-name="bracketleft" unicode="[" horiz-adv-x="315" 
d="M186 714v-880h108v-74h-190v1028h190v-74h-108z" />
    <glyph glyph-name="backslash" unicode="\" horiz-adv-x="570" 
d="M18 795l66 30l468 -825l-65 -30z" />
    <glyph glyph-name="bracketright" unicode="]" horiz-adv-x="315" 
d="M129 -166v880h-108v74h190v-1028h-190v74h108z" />
    <glyph glyph-name="asciicircum" unicode="^" 
d="M66 322l206 432h72l206 -432h-89l-153 328l-155 -328h-87z" />
    <glyph glyph-name="underscore" unicode="_" horiz-adv-x="500" 
d="M500 -75v-50h-500v50h500z" />
    <glyph glyph-name="grave" unicode="`" horiz-adv-x="358" 
d="M78 706l84 38l119 -164l-50 -28z" />
    <glyph glyph-name="a" unicode="a" horiz-adv-x="577" 
d="M271 409q-67 0 -110 -50t-43 -119q0 -73 41.5 -126t112.5 -53q74 0 115.5 51.5t41.5 126.5q0 73 -43 121.5t-115 48.5zM505 470v-470h-80v65h-2q-61 -78 -162 -78q-100 0 -162.5 73t-62.5 174q0 104 62 176.5t164 72.5q99 0 161 -80h2v67h80z" />
    <glyph glyph-name="b" unicode="b" horiz-adv-x="577" 
d="M301 409q-67 0 -110 -50t-43 -119q0 -73 41.5 -126t112.5 -53q74 0 115.5 51.5t41.5 126.5q0 73 -43 121.5t-115 48.5zM72 0v825h80v-422h2q61 80 161 80q102 0 164 -72.5t62 -175.5q0 -102 -62.5 -175t-162.5 -73q-104 0 -162 78h-2v-65h-80z" />
    <glyph glyph-name="c" unicode="c" horiz-adv-x="476" 
d="M425 436v-106h-2q-62 79 -146 79q-71 0 -118.5 -51t-47.5 -123t45 -123t117 -51q91 0 153 81h2v-107q-71 -48 -149 -48q-107 0 -178.5 71t-71.5 177q0 104 73.5 176t177.5 72q79 0 145 -47z" />
    <glyph glyph-name="d" unicode="d" horiz-adv-x="577" 
d="M271 409q-67 0 -110 -50t-43 -119q0 -73 41.5 -126t112.5 -53q74 0 115.5 51.5t41.5 126.5q0 73 -43 121.5t-115 48.5zM425 0v65h-2q-60 -78 -162 -78q-100 0 -162.5 73t-62.5 174q0 104 62 176.5t164 72.5q100 0 161 -80h2v422h80v-825h-80z" />
    <glyph glyph-name="e" unicode="e" horiz-adv-x="519" 
d="M485 218h-369q1 -66 44 -111.5t110 -45.5q89 0 143 97l68 -39q-71 -132 -217 -132q-103 0 -166.5 69.5t-63.5 172.5q0 109 61 181.5t167 72.5q109 0 169 -77.5t54 -187.5zM120 286h281q-8 52 -47 87.5t-91 35.5t-94 -36t-49 -87z" />
    <glyph glyph-name="f" unicode="f" horiz-adv-x="274" 
d="M163 396v-396h-80v396h-44v74h44v187q0 88 21 122q37 59 121 59q25 0 57 -10v-81q-33 11 -54 11q-19 0 -31.5 -6.5t-19.5 -14.5t-10 -27.5t-3.5 -34t-0.5 -46.5v-159h119v-74h-119z" />
    <glyph glyph-name="g" unicode="g" horiz-adv-x="580" 
d="M266 409q-67 0 -110 -50t-43 -119q0 -73 41.5 -126t112.5 -53q74 0 115.5 51.5t41.5 126.5q0 73 -43 121.5t-115 48.5zM500 470v-447q0 -49 -1.5 -74.5t-12.5 -62t-34 -65.5q-65 -83 -182 -83q-100 0 -164.5 59t-66.5 157h80q1 -64 43 -103t107 -39q45 0 75.5 15.5
t46.5 44t22.5 61.5t6.5 76v56h-2q-28 -37 -71.5 -57.5t-91.5 -20.5q-100 0 -162 72t-62 174q0 103 63 176.5t164 73.5q100 0 160 -80h2v67h80z" />
    <glyph glyph-name="h" unicode="h" horiz-adv-x="528" 
d="M76 825h80v-410l2 -2q51 70 134 70q90 0 125 -55t35 -149v-279h-80v265q0 34 -2.5 55.5t-11.5 44t-30.5 33.5t-54.5 11q-32 0 -54.5 -12t-34.5 -29t-18.5 -44t-8 -48.5t-1.5 -52.5v-223h-80v825z" />
    <glyph glyph-name="i" unicode="i" horiz-adv-x="262" 
d="M171 470v-470h-80v470h80zM131 704q23 0 40 -17t17 -40q0 -24 -17 -40.5t-40 -16.5t-40 16.5t-17 40.5q0 23 17 40t40 17z" />
    <glyph glyph-name="j" unicode="j" horiz-adv-x="262" 
d="M171 470v-734h-80v734h80zM131 704q23 0 40 -17t17 -40q0 -24 -17 -40.5t-40 -16.5t-40 16.5t-17 40.5q0 23 17 40t40 17z" />
    <glyph glyph-name="k" unicode="k" horiz-adv-x="470" 
d="M152 825v-529l171 174h107l-201 -200l239 -270h-106l-189 214l-21 -21v-193h-80v825h80z" />
    <glyph glyph-name="l" unicode="l" horiz-adv-x="227" 
d="M154 825v-825h-80v825h80z" />
    <glyph glyph-name="m" unicode="m" horiz-adv-x="768" 
d="M156 470v-51h2q41 64 113 64q42 0 76.5 -21t53.5 -57q20 38 58.5 58t82.5 20q150 0 150 -197v-286h-80v273q0 29 -2 48t-10 42t-26.5 34.5t-47.5 11.5q-33 0 -54.5 -14t-31 -40t-13 -50t-3.5 -56v-249h-80v267q0 142 -84 142q-33 0 -55.5 -15t-32 -42t-13 -52t-3.5 -57
v-243h-80v470h80z" />
    <glyph glyph-name="n" unicode="n" horiz-adv-x="528" 
d="M156 470v-57h2q51 70 134 70q90 0 125 -55t35 -149v-279h-80v265q0 34 -2.5 55.5t-11.5 44t-30.5 33.5t-54.5 11q-32 0 -54.5 -12t-34.5 -29t-18.5 -44t-8 -48.5t-1.5 -52.5v-223h-80v470h80z" />
    <glyph glyph-name="o" unicode="o" horiz-adv-x="562" 
d="M281 -13q-103 0 -175 72t-72 175q0 104 72 176.5t175 72.5t175 -72.5t72 -176.5q0 -103 -72 -175t-175 -72zM281 409q-73 0 -120 -50.5t-47 -123.5t47 -123.5t120 -50.5t120 50.5t47 123.5t-47 123.5t-120 50.5z" />
    <glyph glyph-name="p" unicode="p" horiz-adv-x="577" 
d="M301 409q-67 0 -110 -50t-43 -119q0 -73 41.5 -126t112.5 -53q74 0 115.5 51.5t41.5 126.5q0 73 -43 121.5t-115 48.5zM152 470v-67h2q60 80 162 80q100 0 162.5 -73.5t62.5 -175.5q0 -104 -61.5 -175.5t-164.5 -71.5q-102 0 -161 79h-2v-330h-80v734h80z" />
    <glyph glyph-name="q" unicode="q" horiz-adv-x="577" 
d="M271 409q-67 0 -110 -50t-43 -119q0 -73 41.5 -126t112.5 -53q74 0 115.5 51.5t41.5 126.5q0 73 -43 121.5t-115 48.5zM505 470v-734h-80v330h-2q-59 -79 -161 -79q-103 0 -164.5 71.5t-61.5 174.5q0 102 62 176t163 74q102 0 162 -80h2v67h80z" />
    <glyph glyph-name="r" unicode="r" horiz-adv-x="335" 
d="M152 470v-51h2q25 33 46.5 48.5t57.5 15.5q33 0 72 -22l-38 -73q-31 21 -48 21q-92 0 -92 -174v-235h-80v470h80z" />
    <glyph glyph-name="s" unicode="s" horiz-adv-x="399" 
d="M333 396l-67 -35q-9 20 -26 34t-38 14q-22 0 -40 -15t-18 -37q0 -9 2.5 -16.5t10 -14.5t13 -12t18.5 -11t19 -9t23 -10t23 -9q50 -21 79.5 -51t29.5 -84q0 -66 -46.5 -109.5t-112.5 -43.5q-59 0 -103 31.5t-63 87.5l71 30q17 -37 38 -56t58 -19q33 0 54.5 20t21.5 52
q0 29 -22 48t-53 31.5t-62 27t-53 42t-22 68.5q0 58 41 95.5t99 37.5q40 0 74.5 -24.5t50.5 -62.5z" />
    <glyph glyph-name="t" unicode="t" horiz-adv-x="240" 
d="M160 396v-396h-80v396h-49v74h49v169h80v-169h84v-74h-84z" />
    <glyph glyph-name="u" unicode="u" horiz-adv-x="512" 
d="M150 470v-262q0 -27 1.5 -46t8 -39.5t17.5 -33t31 -20.5t48 -8t48 8t31 20.5t17.5 33t8 39.5t1.5 46v262h80v-271q0 -212 -186 -212t-186 212v271h80z" />
    <glyph glyph-name="v" unicode="v" horiz-adv-x="463" 
d="M92 470l140 -316l140 316h90l-230 -501l-231 501h91z" />
    <glyph glyph-name="w" unicode="w" horiz-adv-x="760" 
d="M94 470l139 -318l146 354l147 -354l140 318h91l-233 -503l-145 350l-145 -350l-231 503h91z" />
    <glyph glyph-name="x" unicode="x" horiz-adv-x="498" 
d="M201 250l-171 220h98l123 -160l123 160h100l-172 -220l195 -250h-97l-149 191l-150 -191h-100z" />
    <glyph glyph-name="y" unicode="y" horiz-adv-x="498" 
d="M214 44l-216 426h93l166 -337l152 337h91l-347 -734h-91z" />
    <glyph glyph-name="z" unicode="z" horiz-adv-x="519" 
d="M172 74h324v-74h-486l339 396h-276v74h437z" />
    <glyph glyph-name="braceleft" unicode="{" horiz-adv-x="334" 
d="M51 242v64q47 15 61 50.5t14 109.5v187q0 56 29.5 95.5t55.5 39.5h73v-74h-40q-13 0 -20.5 -4.5t-11 -17t-4 -22.5t-0.5 -32v-189q0 -41 -9.5 -75t-24 -54.5t-24.5 -30.5t-18 -15q12 -7 26.5 -22.5t32 -58t17.5 -95.5v-188q0 -22 0.5 -32t4 -22.5t11 -17t20.5 -4.5h40
v-74h-73q-26 0 -55.5 39.5t-29.5 95.5v186q0 74 -14 110t-61 51z" />
    <glyph glyph-name="bar" unicode="|" horiz-adv-x="570" 
d="M324 786v-1000h-78v1000h78z" />
    <glyph glyph-name="braceright" unicode="}" horiz-adv-x="334" 
d="M283 306v-64q-47 -15 -61 -51t-14 -110v-186q0 -56 -29.5 -95.5t-55.5 -39.5h-73v74h40q13 0 20.5 4.5t11 17t4 22.5t0.5 32v188q0 41 9.5 75.5t24 55t24.5 30.5t18 15q-12 7 -26.5 22.5t-32 57.5t-17.5 95v189q0 22 -0.5 32t-4 22.5t-11 17t-20.5 4.5h-40v74h73
q26 0 55.5 -39.5t29.5 -95.5v-187q0 -74 14 -109.5t61 -50.5z" />
    <glyph glyph-name="asciitilde" unicode="~" 
d="M135 172l-69 28q53 147 139 147q41 0 109 -45q9 -6 25.5 -17.5t26.5 -18t23 -12.5t22 -6q20 0 39 27.5t32 69.5l68 -28q-50 -147 -139 -147q-36 0 -102 44l-18 12t-17.5 11.5t-15 9.5t-15.5 9t-13 6t-13 4.5t-12 1.5q-40 0 -70 -96z" />
    <glyph glyph-name="uni00A0" unicode="&#xa0;" horiz-adv-x="308" 
 />
    <glyph glyph-name="exclamdown" unicode="&#xa1;" horiz-adv-x="338" 
d="M169 483q23 0 39.5 -16t16.5 -39t-16.5 -40t-39.5 -17t-39.5 17t-16.5 40t16.5 39t39.5 16zM210 317v-601h-82v601h82z" />
    <glyph glyph-name="cent" unicode="&#xa2;" 
d="M491 587v-106h-2q-52 66 -118 76v-344q70 10 120 80h2v-107q-65 -43 -122 -47v-112h-66v113q-88 10 -149 80.5t-61 159.5q0 94 59 166t151 83v106h66v-104q65 -6 120 -44zM305 214v341q-57 -11 -92.5 -60.5t-35.5 -108.5q0 -62 35 -111t93 -61z" />
    <glyph glyph-name="sterling" unicode="&#xa3;" 
d="M208 268h-127v64h100l-19 37q-4 7 -15.5 29t-15.5 30.5t-12 28t-11.5 32t-6.5 30t-3 34.5q0 91 65.5 152.5t157.5 61.5q97 0 157.5 -64.5t61.5 -161.5l-82 -22q-1 72 -33.5 120t-101.5 48q-58 0 -98.5 -39t-40.5 -97q0 -35 14.5 -72t40 -81t34.5 -66h142v-64h-120
q7 -26 7 -45q0 -51 -33 -108l5 -2q2 -1 41.5 -15t64 -21t39.5 -7q30 0 50.5 20.5t40.5 54.5l68 -41q-23 -50 -63 -83t-91 -33q-41 0 -122 29q-83 29 -110 29q-54 0 -90 -61l-65 44q59 96 146 97q32 45 32 93q0 27 -7 49z" />
    <glyph glyph-name="currency" unicode="&#xa4;" 
d="M66 498l36 36l42 -42q80 58 164 58t164 -58l42 42l36 -36l-40 -40q53 -82 53 -158t-53 -158l40 -40l-36 -36l-42 42q-80 -58 -164 -58t-164 58l-42 -42l-36 36l40 40q-53 82 -53 158t53 158zM308 486q-82 -2 -137 -54.5t-54 -131.5q2 -76 57.5 -131t133.5 -55t133.5 55
t57.5 131q1 79 -54 131.5t-137 54.5z" />
    <glyph glyph-name="yen" unicode="&#xa5;" 
d="M266 0v256h-237v64h237l-55 100h-182v64h145l-155 270h97l192 -334l192 334h97l-155 -270h145v-64h-182l-55 -100h237v-64h-237v-256h-84z" />
    <glyph glyph-name="brokenbar" unicode="&#xa6;" horiz-adv-x="570" 
d="M324 161v-250h-78v250h78zM324 661v-250h-78v250h78z" />
    <glyph glyph-name="section" unicode="&#xa7;" horiz-adv-x="592" 
d="M296 402q-46 0 -78 -32t-32 -78t32 -78.5t78 -32.5t78.5 32.5t32.5 78.5t-32.5 78t-78.5 32zM105 4h81q0 -53 25 -84.5t77 -31.5q49 0 76 26t27 74q0 26 -8.5 45.5t-29 33t-34.5 20t-44 17.5q-5 2 -27 11t-32 13.5t-26 13t-27 17.5q-61 48 -61 132q0 56 27.5 99t77.5 64
q-88 44 -88 141q0 76 55.5 124t133.5 48q41 0 81 -18t62 -49q34 -48 36 -129h-80q-6 119 -100 119q-46 0 -76 -27.5t-30 -73.5q0 -13 2 -24t8 -20t11 -16t16 -14t17 -11.5t21 -10.5t21.5 -8.5t24.5 -8.5l24 -8q32 -12 53.5 -23.5t44.5 -31.5t34.5 -51t11.5 -73
q0 -106 -105 -160q88 -45 88 -146q0 -79 -52.5 -125.5t-133.5 -46.5q-174 0 -182 193z" />
    <glyph glyph-name="dieresis" unicode="&#xa8;" horiz-adv-x="467" 
d="M135 705q23 0 38.5 -15.5t15.5 -38.5t-15.5 -38.5t-38.5 -15.5t-38.5 15.5t-15.5 38.5t15.5 38.5t38.5 15.5zM332 705q22 0 38 -15.5t16 -38.5t-16 -38.5t-38 -15.5t-38 15.5t-16 38.5t16 38.5t38 15.5z" />
    <glyph glyph-name="copyright" unicode="&#xa9;" horiz-adv-x="800" 
d="M400 -13q-164 0 -278 113.5t-114 276.5t114 276.5t278 113.5t278 -113.5t114 -276.5t-114 -276.5t-278 -113.5zM400 47q135 0 233.5 96.5t98.5 233.5t-98.5 233.5t-233.5 96.5t-233.5 -96.5t-98.5 -233.5t98.5 -233.5t233.5 -96.5zM599 457h-61q-9 41 -42 64.5t-82 23.5
q-76 0 -116 -49t-40 -114q0 -71 42.5 -118.5t115.5 -47.5q100 0 122 91h61q-9 -69 -61 -110t-122 -41q-97 0 -157.5 64.5t-60.5 159.5q0 99 59 162t158 63q70 0 120.5 -39.5t63.5 -108.5z" />
    <glyph glyph-name="ordfeminine" unicode="&#xaa;" horiz-adv-x="346" 
d="M174 723q-44 0 -72.5 -30.5t-28.5 -71.5q0 -44 27.5 -76t73.5 -32q48 0 75 31t27 76q0 44 -27.5 73.5t-74.5 29.5zM326 759v-282h-52v39h-2q-39 -47 -105 -47q-65 0 -105.5 43.5t-40.5 104.5q0 63 40 106.5t107 43.5q64 0 104 -48h2v40h52z" />
    <glyph glyph-name="guillemotleft" unicode="&#xab;" horiz-adv-x="500" 
d="M297 240l135 -166l-53 -41l-168 207l168 213l53 -42zM127 240l135 -166l-53 -41l-168 207l168 213l53 -42z" />
    <glyph glyph-name="logicalnot" unicode="&#xac;" 
d="M472 103v192h-406v78h484v-270h-78z" />
    <glyph glyph-name="uni00AD" unicode="&#xad;" horiz-adv-x="208" 
d="M2 278h205v-74h-205v74z" />
    <glyph glyph-name="registered" unicode="&#xae;" horiz-adv-x="800" 
d="M400 -13q-164 0 -278 113.5t-114 276.5t114 276.5t278 113.5t278 -113.5t114 -276.5t-114 -276.5t-278 -113.5zM400 47q135 0 233.5 96.5t98.5 233.5t-98.5 233.5t-233.5 96.5t-233.5 -96.5t-98.5 -233.5t98.5 -233.5t233.5 -96.5zM457 363l129 -197h-72l-128 197h-72
v-197h-60v427h186q152 0 152 -113t-135 -117zM314 423h72q4 0 24 -0.5t28.5 0t26.5 2t27 5.5t20 10t15.5 16.5t4.5 24.5q0 52 -104 52h-114v-110z" />
    <glyph glyph-name="macron" unicode="&#xaf;" horiz-adv-x="499" 
d="M79 682h342v-68h-342v68z" />
    <glyph glyph-name="degree" unicode="&#xb0;" horiz-adv-x="400" 
d="M350 617q0 -62 -44 -106t-106 -44t-106 44t-44 106q-1 62 43.5 106t106.5 44t106 -44.5t44 -105.5zM302 617q0 42 -30 72t-73 30q-42 0 -72 -30t-29 -72q0 -43 29.5 -72.5t72.5 -29.5q42 0 72 29.5t30 72.5z" />
    <glyph glyph-name="plusminus" unicode="&#xb1;" 
d="M269 498h78v-153h203v-78h-203v-153h-78v153h-203v78h203v153zM66 0v78h484v-78h-484z" />
    <glyph glyph-name="twosuperior" unicode="&#xb2;" horiz-adv-x="369" 
d="M146 359h197v-52h-317l229 250q28 31 28 76q0 37 -26 59.5t-66 22.5q-44 0 -68.5 -24t-24.5 -64h-60q2 60 44.5 100t106.5 40q66 0 110 -37.5t44 -96.5q0 -60 -32 -95z" />
    <glyph glyph-name="threesuperior" unicode="&#xb3;" horiz-adv-x="369" 
d="M175 519v52q40 0 65.5 18.5t25.5 51.5q0 34 -24.5 54t-55.5 20q-67 0 -75 -67h-60q6 55 41 87t95 32t99.5 -34.5t39.5 -89.5q0 -31 -17 -58t-46 -41q35 -14 52.5 -44t17.5 -67q0 -63 -42 -98.5t-110 -35.5q-61 0 -102.5 35t-42.5 90h60q0 -34 24.5 -53.5t62.5 -19.5
q40 0 65 24t25 61q0 39 -27 62t-71 21z" />
    <glyph glyph-name="acute" unicode="&#xb4;" horiz-adv-x="358" 
d="M197 744l84 -38l-153 -154l-50 28z" />
    <glyph glyph-name="mu" unicode="&#xb5;" horiz-adv-x="512" 
d="M150 470v-262q0 -27 1.5 -46t8 -39.5t17.5 -33t31 -20.5t48 -8t48 8t31 20.5t17.5 33t8 39.5t1.5 46v262h80v-271q0 -212 -186 -212q-57 0 -106 47v-298h-80v734h80z" />
    <glyph glyph-name="paragraph" unicode="&#xb6;" horiz-adv-x="592" 
d="M534 754v-65h-58v-842h-65v842h-81v-842h-65v436q-86 0 -142.5 57t-63.5 157q-7 95 56.5 176t158.5 81h260z" />
    <glyph glyph-name="periodcentered" unicode="&#xb7;" horiz-adv-x="308" 
d="M154 311q23 0 39.5 -16t16.5 -39t-16.5 -40t-39.5 -17t-39.5 17t-16.5 40t16.5 39t39.5 16z" />
    <glyph glyph-name="cedilla" unicode="&#xb8;" horiz-adv-x="325" 
d="M248 -53l-114 -146l-56 28l96 148z" />
    <glyph glyph-name="onesuperior" unicode="&#xb9;" horiz-adv-x="369" 
d="M195 707h-81l29 52h112v-452h-60v400z" />
    <glyph glyph-name="ordmasculine" unicode="&#xba;" horiz-adv-x="337" 
d="M169 469q-67 0 -114 43t-47 105t47 106t114 44t114 -44t47 -106t-47 -105t-114 -43zM169 723q-47 0 -78 -30.5t-31 -74.5t31 -74.5t78 -30.5t78 30.5t31 74.5t-31 74.5t-78 30.5z" />
    <glyph glyph-name="guillemotright" unicode="&#xbb;" horiz-adv-x="500" 
d="M68 74l135 166l-135 171l53 42l168 -213l-168 -207zM238 74l135 166l-135 171l53 42l168 -213l-168 -207z" />
    <glyph glyph-name="onequarter" unicode="&#xbc;" horiz-adv-x="924" 
d="M764 125h60v-52h-60v-73h-60v73h-245l304 405h1v-353zM704 125v190h-2l-142 -190h144zM181 707h-81l29 52h112v-452h-60v400zM648 767l44 -24l-439 -756l-44 24z" />
    <glyph glyph-name="onehalf" unicode="&#xbd;" horiz-adv-x="924" 
d="M181 707h-81l29 52h112v-452h-60v400zM627 52h197v-52h-317l229 250q28 31 28 76q0 37 -26 59.5t-66 22.5q-44 0 -68.5 -24t-24.5 -64h-60q2 60 44.5 100t106.5 40q66 0 110 -37.5t44 -96.5q0 -60 -32 -95zM603 767l44 -24l-439 -756l-44 24z" />
    <glyph glyph-name="threequarters" unicode="&#xbe;" horiz-adv-x="924" 
d="M784 125h60v-52h-60v-73h-60v73h-245l304 405h1v-353zM724 125v190h-2l-142 -190h144zM706 767l44 -24l-439 -756l-44 24zM219 519v52q40 0 65.5 18.5t25.5 51.5q0 34 -24.5 54t-55.5 20q-67 0 -75 -67h-60q6 55 41 87t95 32t99.5 -34.5t39.5 -89.5q0 -31 -17 -58
t-46 -41q35 -14 52.5 -44t17.5 -67q0 -63 -42 -98.5t-110 -35.5q-61 0 -102.5 35t-42.5 90h60q0 -34 24.5 -53.5t62.5 -19.5q40 0 65 24t25 61q0 39 -27 62t-71 21z" />
    <glyph glyph-name="questiondown" unicode="&#xbf;" horiz-adv-x="488" 
d="M163 146h-81q-2 73 44.5 123t118.5 50q70 0 116.5 -47t46.5 -116q0 -62 -36 -97t-101 -56q-70 -22 -89 -35q-38 -27 -38 -80q0 -46 29 -75t74 -29q42 0 70 28.5t28 70.5q0 24 -6 48h83l4 -53q0 -76 -53.5 -123.5t-130.5 -47.5q-76 0 -128 51.5t-52 128.5q0 85 54 134
q6 5 12 9.5t14 9t14 7.5t16 7t14.5 5.5l16.5 5.5l15 5t16.5 5t14.5 4q77 21 77 83q0 34 -24 57t-58 23q-40 0 -60.5 -27.5t-20.5 -68.5zM246 483q23 0 39.5 -16.5t16.5 -39.5t-16.5 -39.5t-39.5 -16.5t-39.5 16.5t-16.5 39.5t16.5 39.5t39.5 16.5z" />
    <glyph glyph-name="Agrave" unicode="&#xc0;" horiz-adv-x="699" 
d="M511 214h-322l-91 -214h-92l348 790l339 -790h-93zM478 292l-126 302l-129 -302h255zM209 965l84 38l119 -164l-50 -28z" />
    <glyph glyph-name="Aacute" unicode="&#xc1;" horiz-adv-x="699" 
d="M511 214h-322l-91 -214h-92l348 790l339 -790h-93zM478 292l-126 302l-129 -302h255zM408 1003l84 -38l-153 -154l-50 28z" />
    <glyph glyph-name="Acircumflex" unicode="&#xc2;" horiz-adv-x="699" 
d="M511 214h-322l-91 -214h-92l348 790l339 -790h-93zM478 292l-126 302l-129 -302h255zM193 863l156 133l158 -133l-58 -45l-100 85l-99 -85z" />
    <glyph glyph-name="Atilde" unicode="&#xc3;" horiz-adv-x="699" 
d="M511 214h-322l-91 -214h-92l348 790l339 -790h-93zM478 292l-126 302l-129 -302h255zM224 847l-49 39q45 79 102 79q35 0 81 -23q52 -23 64 -23q30 0 56 48l47 -38q-14 -35 -42.5 -58t-63.5 -23q-27 0 -75 23q-50 22 -70 22q-19 0 -29.5 -12t-20.5 -34z" />
    <glyph glyph-name="Adieresis" unicode="&#xc4;" horiz-adv-x="699" 
d="M511 214h-322l-91 -214h-92l348 790l339 -790h-93zM478 292l-126 302l-129 -302h255zM251 964q23 0 38.5 -16t15.5 -38t-15.5 -38t-38.5 -16t-38.5 16t-15.5 38t15.5 38t38.5 16zM448 964q22 0 38 -16t16 -38t-16 -38t-38 -16t-38 16t-16 38t16 38t38 16z" />
    <glyph glyph-name="Aring" unicode="&#xc5;" horiz-adv-x="699" 
d="M511 214h-322l-91 -214h-92l348 790l339 -790h-93zM478 292l-126 302l-129 -302h255zM351 1006q40 0 68.5 -28.5t28.5 -68.5q0 -41 -28 -69.5t-69 -28.5t-69.5 28.5t-28.5 69.5q0 40 29 68.5t69 28.5zM351 956q-20 0 -34 -13.5t-14 -33.5t14 -34t34 -14t33.5 14t13.5 34
t-13.5 33.5t-33.5 13.5z" />
    <glyph glyph-name="AE" unicode="&#xc6;" horiz-adv-x="1000" 
d="M510 212h-322l-89 -212h-93l336 754h331l34 -78h-305l94 -225h297l35 -78h-298l123 -295h306l33 -78h-393zM476 290l-124 297l-128 -297h252z" />
    <glyph glyph-name="Ccedilla" unicode="&#xc7;" horiz-adv-x="717" 
d="M651 693v-104q-97 100 -230 100q-125 0 -214.5 -93t-89.5 -219t90 -219t216 -93q128 0 228 100v-104q-102 -74 -225 -74q-160 0 -276.5 113.5t-116.5 273.5q0 162 115.5 277.5t277.5 115.5q126 0 225 -74zM444 -53l-114 -146l-56 28l96 148z" />
    <glyph glyph-name="Egrave" unicode="&#xc8;" horiz-adv-x="534" 
d="M76 0v754h391v-78h-307v-224h298v-78h-298v-296h307v-78h-391zM141 965l84 38l119 -164l-50 -28z" />
    <glyph glyph-name="Eacute" unicode="&#xc9;" horiz-adv-x="534" 
d="M76 0v754h391v-78h-307v-224h298v-78h-298v-296h307v-78h-391zM325 1003l84 -38l-153 -154l-50 28z" />
    <glyph glyph-name="Ecircumflex" unicode="&#xca;" horiz-adv-x="534" 
d="M76 0v754h391v-78h-307v-224h298v-78h-298v-296h307v-78h-391zM110 863l156 133l158 -133l-58 -45l-100 85l-99 -85z" />
    <glyph glyph-name="Edieresis" unicode="&#xcb;" horiz-adv-x="534" 
d="M76 0v754h391v-78h-307v-224h298v-78h-298v-296h307v-78h-391zM169 964q23 0 38.5 -16t15.5 -38t-15.5 -38t-38.5 -16t-38.5 16t-15.5 38t15.5 38t38.5 16zM366 964q22 0 38 -16t16 -38t-16 -38t-38 -16t-38 16t-16 38t16 38t38 16z" />
    <glyph glyph-name="Igrave" unicode="&#xcc;" horiz-adv-x="239" 
d="M162 754v-754h-84v754h84zM-5 965l84 38l119 -164l-50 -28z" />
    <glyph glyph-name="Iacute" unicode="&#xcd;" horiz-adv-x="239" 
d="M162 754v-754h-84v754h84zM164 1003l84 -38l-153 -154l-50 28z" />
    <glyph glyph-name="Icircumflex" unicode="&#xce;" horiz-adv-x="239" 
d="M162 754v-754h-84v754h84zM-36 863l156 133l158 -133l-58 -45l-100 85l-99 -85z" />
    <glyph glyph-name="Idieresis" unicode="&#xcf;" horiz-adv-x="239" 
d="M162 754v-754h-84v754h84zM22 964q22 0 38 -16t16 -38t-16 -38t-38 -16t-38 16t-16 38t16 38t38 16zM219 964q23 0 38.5 -16t15.5 -38t-15.5 -38t-38.5 -16t-38.5 16t-15.5 38t15.5 38t38.5 16z" />
    <glyph glyph-name="Eth" unicode="&#xd0;" horiz-adv-x="678" 
d="M76 0v370h-76v72h76v312h142q94 0 163 -19t131 -72q125 -108 125 -287q0 -171 -123 -281q-63 -56 -131.5 -75.5t-166.5 -19.5h-140zM160 78h61q77 0 133.5 16.5t104.5 61.5q94 88 94 221q0 140 -98 226q-48 43 -103.5 58t-130.5 15h-61v-234h134v-72h-134v-292z" />
    <glyph glyph-name="Ntilde" unicode="&#xd1;" horiz-adv-x="834" 
d="M81 0v786l588 -616v584h84v-788l-588 615v-581h-84zM291 847l-49 39q45 79 102 79q35 0 81 -23q52 -23 64 -23q30 0 56 48l47 -38q-14 -35 -42.5 -58t-63.5 -23q-27 0 -75 23q-50 22 -70 22q-19 0 -29.5 -12t-20.5 -34z" />
    <glyph glyph-name="Ograve" unicode="&#xd2;" horiz-adv-x="862" 
d="M431 767q162 0 277.5 -114.5t115.5 -276.5t-115.5 -275.5t-277.5 -113.5t-277.5 113.5t-115.5 275.5t115.5 276.5t277.5 114.5zM431 689q-129 0 -219 -91.5t-90 -220.5q0 -128 90.5 -220t218.5 -92t218.5 92t90.5 220q0 129 -90 220.5t-219 91.5zM290 965l84 38l119 -164
l-50 -28z" />
    <glyph glyph-name="Oacute" unicode="&#xd3;" horiz-adv-x="862" 
d="M431 767q162 0 277.5 -114.5t115.5 -276.5t-115.5 -275.5t-277.5 -113.5t-277.5 113.5t-115.5 275.5t115.5 276.5t277.5 114.5zM431 689q-129 0 -219 -91.5t-90 -220.5q0 -128 90.5 -220t218.5 -92t218.5 92t90.5 220q0 129 -90 220.5t-219 91.5zM489 1003l84 -38
l-153 -154l-50 28z" />
    <glyph glyph-name="Ocircumflex" unicode="&#xd4;" horiz-adv-x="862" 
d="M431 767q162 0 277.5 -114.5t115.5 -276.5t-115.5 -275.5t-277.5 -113.5t-277.5 113.5t-115.5 275.5t115.5 276.5t277.5 114.5zM431 689q-129 0 -219 -91.5t-90 -220.5q0 -128 90.5 -220t218.5 -92t218.5 92t90.5 220q0 129 -90 220.5t-219 91.5zM274 863l156 133
l158 -133l-58 -45l-100 85l-99 -85z" />
    <glyph glyph-name="Otilde" unicode="&#xd5;" horiz-adv-x="862" 
d="M431 767q162 0 277.5 -114.5t115.5 -276.5t-115.5 -275.5t-277.5 -113.5t-277.5 113.5t-115.5 275.5t115.5 276.5t277.5 114.5zM431 689q-129 0 -219 -91.5t-90 -220.5q0 -128 90.5 -220t218.5 -92t218.5 92t90.5 220q0 129 -90 220.5t-219 91.5zM305 847l-49 39
q45 79 102 79q35 0 81 -23q52 -23 64 -23q30 0 56 48l47 -38q-14 -35 -42.5 -58t-63.5 -23q-27 0 -75 23q-50 22 -70 22q-19 0 -29.5 -12t-20.5 -34z" />
    <glyph glyph-name="Odieresis" unicode="&#xd6;" horiz-adv-x="862" 
d="M431 767q162 0 277.5 -114.5t115.5 -276.5t-115.5 -275.5t-277.5 -113.5t-277.5 113.5t-115.5 275.5t115.5 276.5t277.5 114.5zM431 689q-129 0 -219 -91.5t-90 -220.5q0 -128 90.5 -220t218.5 -92t218.5 92t90.5 220q0 129 -90 220.5t-219 91.5zM333 964q23 0 38.5 -16
t15.5 -38t-15.5 -38t-38.5 -16t-38.5 16t-15.5 38t15.5 38t38.5 16zM530 964q22 0 38 -16t16 -38t-16 -38t-38 -16t-38 16t-16 38t16 38t38 16z" />
    <glyph glyph-name="multiply" unicode="&#xd7;" 
d="M66 443l55 55l187 -187l186 187l56 -55l-187 -187l187 -187l-56 -55l-186 187l-187 -187l-55 55l187 187z" />
    <glyph glyph-name="Oslash" unicode="&#xd8;" horiz-adv-x="862" 
d="M189 184l437 436q-83 69 -195 69q-129 0 -219 -91.5t-90 -220.5q0 -108 67 -193zM671 574l-437 -436q86 -73 197 -73q128 0 218.5 92t90.5 220q0 111 -69 197zM42 37l89 89q-93 107 -93 250q0 162 115.5 276.5t277.5 114.5q142 0 251 -91l92 91l46 -45l-92 -91
q96 -109 96 -255q0 -162 -115.5 -275.5t-277.5 -113.5q-144 0 -255 93l-90 -90z" />
    <glyph glyph-name="Ugrave" unicode="&#xd9;" horiz-adv-x="685" 
d="M158 754v-449q0 -43 0.5 -61t8.5 -51.5t24 -55.5q24 -33 66.5 -52.5t85.5 -19.5q41 0 81.5 18t66.5 49q17 21 26 51.5t10 51t1 58.5v12v449h84v-472q0 -72 -12.5 -119t-53.5 -90q-80 -86 -203 -86q-116 0 -195 77q-45 43 -59.5 93t-14.5 125v472h84zM202 965l84 38
l119 -164l-50 -28z" />
    <glyph glyph-name="Uacute" unicode="&#xda;" horiz-adv-x="685" 
d="M158 754v-449q0 -43 0.5 -61t8.5 -51.5t24 -55.5q24 -33 66.5 -52.5t85.5 -19.5q41 0 81.5 18t66.5 49q17 21 26 51.5t10 51t1 58.5v12v449h84v-472q0 -72 -12.5 -119t-53.5 -90q-80 -86 -203 -86q-116 0 -195 77q-45 43 -59.5 93t-14.5 125v472h84zM401 1003l84 -38
l-153 -154l-50 28z" />
    <glyph glyph-name="Ucircumflex" unicode="&#xdb;" horiz-adv-x="685" 
d="M158 754v-449q0 -43 0.5 -61t8.5 -51.5t24 -55.5q24 -33 66.5 -52.5t85.5 -19.5q41 0 81.5 18t66.5 49q17 21 26 51.5t10 51t1 58.5v12v449h84v-472q0 -72 -12.5 -119t-53.5 -90q-80 -86 -203 -86q-116 0 -195 77q-45 43 -59.5 93t-14.5 125v472h84zM186 863l156 133
l158 -133l-58 -45l-100 85l-99 -85z" />
    <glyph glyph-name="Udieresis" unicode="&#xdc;" horiz-adv-x="685" 
d="M158 754v-449q0 -43 0.5 -61t8.5 -51.5t24 -55.5q24 -33 66.5 -52.5t85.5 -19.5q41 0 81.5 18t66.5 49q17 21 26 51.5t10 51t1 58.5v12v449h84v-472q0 -72 -12.5 -119t-53.5 -90q-80 -86 -203 -86q-116 0 -195 77q-45 43 -59.5 93t-14.5 125v472h84zM244 964q22 0 38 -16
t16 -38t-16 -38t-38 -16t-38 16t-16 38t16 38t38 16zM441 964q23 0 38.5 -16t15.5 -38t-15.5 -38t-38.5 -16t-38.5 16t-15.5 38t15.5 38t38.5 16z" />
    <glyph glyph-name="Yacute" unicode="&#xdd;" horiz-adv-x="593" 
d="M255 324l-247 430h97l192 -336l192 336h97l-247 -430v-324h-84v324zM375 1003l84 -38l-153 -154l-50 28z" />
    <glyph glyph-name="Thorn" unicode="&#xde;" horiz-adv-x="503" 
d="M160 190v-190h-84v754h84v-140h40q62 0 106 -7t81 -33q41 -29 63 -74.5t22 -97.5q0 -102 -72 -162q-61 -50 -179 -50h-61zM160 536v-268h56q172 0 172 136q0 36 -11.5 61t-29 38.5t-45.5 21t-52 9.5t-59 2h-31z" />
    <glyph glyph-name="germandbls" unicode="&#xdf;" horiz-adv-x="577" 
d="M72 0v396h-44v74h44v144q0 105 39 154q27 34 70 52t89 18q83 0 138.5 -53t55.5 -135q0 -46 -22 -86t-62 -60q72 -25 116.5 -93.5t44.5 -147.5q0 -115 -85.5 -194.5t-201.5 -81.5v74q86 5 145.5 62.5t59.5 142.5q0 43 -19 82.5t-52 65.5q-48 37 -134 44v74
q57 -1 93.5 32.5t36.5 89.5q0 49 -33 79.5t-82 30.5q-35 0 -64 -15t-40 -45q-13 -32 -13 -127v-577h-80z" />
    <glyph glyph-name="agrave" unicode="&#xe0;" horiz-adv-x="577" 
d="M271 409q-67 0 -110 -50t-43 -119q0 -73 41.5 -126t112.5 -53q74 0 115.5 51.5t41.5 126.5q0 73 -43 121.5t-115 48.5zM505 470v-470h-80v65h-2q-61 -78 -162 -78q-100 0 -162.5 73t-62.5 174q0 104 62 176.5t164 72.5q99 0 161 -80h2v67h80zM148 706l84 38l119 -164
l-50 -28z" />
    <glyph glyph-name="aacute" unicode="&#xe1;" horiz-adv-x="577" 
d="M271 409q-67 0 -110 -50t-43 -119q0 -73 41.5 -126t112.5 -53q74 0 115.5 51.5t41.5 126.5q0 73 -43 121.5t-115 48.5zM505 470v-470h-80v65h-2q-61 -78 -162 -78q-100 0 -162.5 73t-62.5 174q0 104 62 176.5t164 72.5q99 0 161 -80h2v67h80zM347 744l84 -38l-153 -154
l-50 28z" />
    <glyph glyph-name="acircumflex" unicode="&#xe2;" horiz-adv-x="577" 
d="M271 409q-67 0 -110 -50t-43 -119q0 -73 41.5 -126t112.5 -53q74 0 115.5 51.5t41.5 126.5q0 73 -43 121.5t-115 48.5zM505 470v-470h-80v65h-2q-61 -78 -162 -78q-100 0 -162.5 73t-62.5 174q0 104 62 176.5t164 72.5q99 0 161 -80h2v67h80zM132 604l156 133l158 -133
l-58 -45l-100 85l-99 -85z" />
    <glyph glyph-name="atilde" unicode="&#xe3;" horiz-adv-x="577" 
d="M271 409q-67 0 -110 -50t-43 -119q0 -73 41.5 -126t112.5 -53q74 0 115.5 51.5t41.5 126.5q0 73 -43 121.5t-115 48.5zM505 470v-470h-80v65h-2q-61 -78 -162 -78q-100 0 -162.5 73t-62.5 174q0 104 62 176.5t164 72.5q99 0 161 -80h2v67h80zM163 588l-49 39
q45 79 102 79q35 0 81 -23q52 -23 64 -23q30 0 56 48l47 -38q-14 -35 -42.5 -58t-63.5 -23q-27 0 -75 23q-50 22 -70 22q-19 0 -29.5 -12t-20.5 -34z" />
    <glyph glyph-name="adieresis" unicode="&#xe4;" horiz-adv-x="577" 
d="M271 409q-67 0 -110 -50t-43 -119q0 -73 41.5 -126t112.5 -53q74 0 115.5 51.5t41.5 126.5q0 73 -43 121.5t-115 48.5zM505 470v-470h-80v65h-2q-61 -78 -162 -78q-100 0 -162.5 73t-62.5 174q0 104 62 176.5t164 72.5q99 0 161 -80h2v67h80zM190 705q22 0 38 -15.5
t16 -38.5t-16 -38.5t-38 -15.5t-38 15.5t-16 38.5t16 38.5t38 15.5zM387 705q23 0 38.5 -15.5t15.5 -38.5t-15.5 -38.5t-38.5 -15.5t-38.5 15.5t-15.5 38.5t15.5 38.5t38.5 15.5z" />
    <glyph glyph-name="aring" unicode="&#xe5;" horiz-adv-x="577" 
d="M271 409q-67 0 -110 -50t-43 -119q0 -73 41.5 -126t112.5 -53q74 0 115.5 51.5t41.5 126.5q0 73 -43 121.5t-115 48.5zM505 470v-470h-80v65h-2q-61 -78 -162 -78q-100 0 -162.5 73t-62.5 174q0 104 62 176.5t164 72.5q99 0 161 -80h2v67h80zM290 747q40 0 68.5 -28.5
t28.5 -68.5q0 -41 -28 -69.5t-69 -28.5t-69.5 28.5t-28.5 69.5q0 40 29 68.5t69 28.5zM290 697q-20 0 -34 -13.5t-14 -33.5t14 -34t34 -14t33.5 14t13.5 34t-13.5 33.5t-33.5 13.5z" />
    <glyph glyph-name="ae" unicode="&#xe6;" horiz-adv-x="843" 
d="M447 286h281q-8 52 -47 87.5t-91 35.5t-94 -36t-49 -87zM228 223q-45 0 -82 -21t-37 -62t36 -60t82 -19q49 0 88 19.5t39 63.5q0 41 -40.5 60t-85.5 19zM809 218h-370q1 -66 44 -111.5t110 -45.5q89 0 143 97l68 -39q-71 -132 -217 -132q-54 0 -101.5 24t-78.5 69
q-53 -93 -176 -93q-81 0 -141.5 38t-60.5 113q0 76 58.5 116t137.5 40q75 0 134 -40q-1 75 -31.5 115t-103.5 40q-56 0 -144 -30v76q93 28 149 28t104.5 -24.5t69.5 -72.5q27 45 77.5 71t104.5 26q109 0 169 -77t55 -188z" />
    <glyph glyph-name="ccedilla" unicode="&#xe7;" horiz-adv-x="476" 
d="M425 436v-106h-2q-62 79 -146 79q-71 0 -118.5 -51t-47.5 -123t45 -123t117 -51q91 0 153 81h2v-107q-71 -48 -149 -48q-107 0 -178.5 71t-71.5 177q0 104 73.5 176t177.5 72q79 0 145 -47zM324 -53l-114 -146l-56 28l96 148z" />
    <glyph glyph-name="egrave" unicode="&#xe8;" horiz-adv-x="519" 
d="M485 218h-369q1 -66 44 -111.5t110 -45.5q89 0 143 97l68 -39q-71 -132 -217 -132q-103 0 -166.5 69.5t-63.5 172.5q0 109 61 181.5t167 72.5q109 0 169 -77.5t54 -187.5zM120 286h281q-8 52 -47 87.5t-91 35.5t-94 -36t-49 -87zM119 706l84 38l119 -164l-50 -28z" />
    <glyph glyph-name="eacute" unicode="&#xe9;" horiz-adv-x="519" 
d="M485 218h-369q1 -66 44 -111.5t110 -45.5q89 0 143 97l68 -39q-71 -132 -217 -132q-103 0 -166.5 69.5t-63.5 172.5q0 109 61 181.5t167 72.5q109 0 169 -77.5t54 -187.5zM120 286h281q-8 52 -47 87.5t-91 35.5t-94 -36t-49 -87zM318 744l84 -38l-153 -154l-50 28z" />
    <glyph glyph-name="ecircumflex" unicode="&#xea;" horiz-adv-x="519" 
d="M485 218h-369q1 -66 44 -111.5t110 -45.5q89 0 143 97l68 -39q-71 -132 -217 -132q-103 0 -166.5 69.5t-63.5 172.5q0 109 61 181.5t167 72.5q109 0 169 -77.5t54 -187.5zM120 286h281q-8 52 -47 87.5t-91 35.5t-94 -36t-49 -87zM103 604l156 133l158 -133l-58 -45
l-100 85l-99 -85z" />
    <glyph glyph-name="edieresis" unicode="&#xeb;" horiz-adv-x="519" 
d="M485 218h-369q1 -66 44 -111.5t110 -45.5q89 0 143 97l68 -39q-71 -132 -217 -132q-103 0 -166.5 69.5t-63.5 172.5q0 109 61 181.5t167 72.5q109 0 169 -77.5t54 -187.5zM120 286h281q-8 52 -47 87.5t-91 35.5t-94 -36t-49 -87zM161 705q23 0 38.5 -15.5t15.5 -38.5
t-15.5 -38.5t-38.5 -15.5t-38.5 15.5t-15.5 38.5t15.5 38.5t38.5 15.5zM358 705q22 0 38 -15.5t16 -38.5t-16 -38.5t-38 -15.5t-38 15.5t-16 38.5t16 38.5t38 15.5z" />
    <glyph glyph-name="igrave" unicode="&#xec;" horiz-adv-x="262" 
d="M171 470v-470h-80v470h80zM6 706l84 38l119 -164l-50 -28z" />
    <glyph glyph-name="iacute" unicode="&#xed;" horiz-adv-x="262" 
d="M171 470v-470h-80v470h80zM175 744l84 -38l-153 -154l-50 28z" />
    <glyph glyph-name="icircumflex" unicode="&#xee;" horiz-adv-x="262" 
d="M171 470v-470h-80v470h80zM-25 604l156 133l158 -133l-58 -45l-100 85l-99 -85z" />
    <glyph glyph-name="idieresis" unicode="&#xef;" horiz-adv-x="262" 
d="M171 470v-470h-80v470h80zM34 705q22 0 38 -15.5t16 -38.5t-16 -38.5t-38 -15.5t-38 15.5t-16 38.5t16 38.5t38 15.5zM231 705q23 0 38.5 -15.5t15.5 -38.5t-15.5 -38.5t-38.5 -15.5t-38.5 15.5t-15.5 38.5t15.5 38.5t38.5 15.5z" />
    <glyph glyph-name="eth" unicode="&#xf0;" horiz-adv-x="561" 
d="M93 785l44 46q88 -57 137 -98l138 92l40 -41l-134 -90q21 -20 33.5 -33.5t41.5 -47.5t48.5 -68t41.5 -79.5t33 -99.5t11 -110q0 -67 -22.5 -120.5t-59.5 -84.5t-79 -47t-85 -16q-103 0 -175 72.5t-72 174.5q0 98 67.5 172t171.5 74q89 0 156 -64q-43 122 -169 239
l-133 -89l-39 41l130 87q-49 43 -125 90zM115 236q0 -76 48.5 -125t118.5 -49q73 0 119.5 51t46.5 123q0 71 -46.5 122.5t-118.5 51.5q-73 0 -120.5 -50t-47.5 -124z" />
    <glyph glyph-name="ntilde" unicode="&#xf1;" horiz-adv-x="528" 
d="M156 470v-57h2q51 70 134 70q90 0 125 -55t35 -149v-279h-80v265q0 34 -2.5 55.5t-11.5 44t-30.5 33.5t-54.5 11q-32 0 -54.5 -12t-34.5 -29t-18.5 -44t-8 -48.5t-1.5 -52.5v-223h-80v470h80zM138 588l-49 39q45 79 102 79q35 0 81 -23q52 -23 64 -23q30 0 56 48l47 -38
q-14 -35 -42.5 -58t-63.5 -23q-27 0 -75 23q-50 22 -70 22q-19 0 -29.5 -12t-20.5 -34z" />
    <glyph glyph-name="ograve" unicode="&#xf2;" horiz-adv-x="562" 
d="M281 -13q-103 0 -175 72t-72 175q0 104 72 176.5t175 72.5t175 -72.5t72 -176.5q0 -103 -72 -175t-175 -72zM281 409q-73 0 -120 -50.5t-47 -123.5t47 -123.5t120 -50.5t120 50.5t47 123.5t-47 123.5t-120 50.5zM140 706l84 38l119 -164l-50 -28z" />
    <glyph glyph-name="oacute" unicode="&#xf3;" horiz-adv-x="562" 
d="M281 -13q-103 0 -175 72t-72 175q0 104 72 176.5t175 72.5t175 -72.5t72 -176.5q0 -103 -72 -175t-175 -72zM281 409q-73 0 -120 -50.5t-47 -123.5t47 -123.5t120 -50.5t120 50.5t47 123.5t-47 123.5t-120 50.5zM339 744l84 -38l-153 -154l-50 28z" />
    <glyph glyph-name="ocircumflex" unicode="&#xf4;" horiz-adv-x="562" 
d="M281 -13q-103 0 -175 72t-72 175q0 104 72 176.5t175 72.5t175 -72.5t72 -176.5q0 -103 -72 -175t-175 -72zM281 409q-73 0 -120 -50.5t-47 -123.5t47 -123.5t120 -50.5t120 50.5t47 123.5t-47 123.5t-120 50.5zM124 604l156 133l158 -133l-58 -45l-100 85l-99 -85z" />
    <glyph glyph-name="otilde" unicode="&#xf5;" horiz-adv-x="562" 
d="M281 -13q-103 0 -175 72t-72 175q0 104 72 176.5t175 72.5t175 -72.5t72 -176.5q0 -103 -72 -175t-175 -72zM281 409q-73 0 -120 -50.5t-47 -123.5t47 -123.5t120 -50.5t120 50.5t47 123.5t-47 123.5t-120 50.5zM155 588l-49 39q45 79 102 79q35 0 81 -23q52 -23 64 -23
q30 0 56 48l47 -38q-14 -35 -42.5 -58t-63.5 -23q-27 0 -75 23q-50 22 -70 22q-19 0 -29.5 -12t-20.5 -34z" />
    <glyph glyph-name="odieresis" unicode="&#xf6;" horiz-adv-x="562" 
d="M281 -13q-103 0 -175 72t-72 175q0 104 72 176.5t175 72.5t175 -72.5t72 -176.5q0 -103 -72 -175t-175 -72zM281 409q-73 0 -120 -50.5t-47 -123.5t47 -123.5t120 -50.5t120 50.5t47 123.5t-47 123.5t-120 50.5zM183 705q23 0 38.5 -15.5t15.5 -38.5t-15.5 -38.5
t-38.5 -15.5t-38.5 15.5t-15.5 38.5t15.5 38.5t38.5 15.5zM380 705q22 0 38 -15.5t16 -38.5t-16 -38.5t-38 -15.5t-38 15.5t-16 38.5t16 38.5t38 15.5z" />
    <glyph glyph-name="divide" unicode="&#xf7;" 
d="M66 217v78h484v-78h-484zM308 124q23 0 40 -17t17 -40q0 -24 -17 -40.5t-40 -16.5t-40 16.5t-17 40.5q0 23 17 40t40 17zM308 502q23 0 40 -17t17 -40q0 -24 -17 -40.5t-40 -16.5t-40 16.5t-17 40.5q0 23 17 40t40 17z" />
    <glyph glyph-name="oslash" unicode="&#xf8;" horiz-adv-x="562" 
d="M143 134l240 240q-43 35 -102 35q-73 0 -120 -50.5t-47 -123.5q0 -56 29 -101zM419 333l-238 -239q41 -33 100 -33q73 0 120 50.5t47 123.5q0 57 -29 98zM20 11l68 68q-54 67 -54 155q0 104 72 176.5t175 72.5q90 0 156 -55l66 66l39 -38l-67 -67q53 -66 53 -155
q0 -103 -72 -175t-175 -72q-87 0 -154 53l-68 -68z" />
    <glyph glyph-name="ugrave" unicode="&#xf9;" horiz-adv-x="512" 
d="M150 470v-262q0 -27 1.5 -46t8 -39.5t17.5 -33t31 -20.5t48 -8t48 8t31 20.5t17.5 33t8 39.5t1.5 46v262h80v-271q0 -212 -186 -212t-186 212v271h80zM115 706l84 38l119 -164l-50 -28z" />
    <glyph glyph-name="uacute" unicode="&#xfa;" horiz-adv-x="512" 
d="M150 470v-262q0 -27 1.5 -46t8 -39.5t17.5 -33t31 -20.5t48 -8t48 8t31 20.5t17.5 33t8 39.5t1.5 46v262h80v-271q0 -212 -186 -212t-186 212v271h80zM314 744l84 -38l-153 -154l-50 28z" />
    <glyph glyph-name="ucircumflex" unicode="&#xfb;" horiz-adv-x="512" 
d="M150 470v-262q0 -27 1.5 -46t8 -39.5t17.5 -33t31 -20.5t48 -8t48 8t31 20.5t17.5 33t8 39.5t1.5 46v262h80v-271q0 -212 -186 -212t-186 212v271h80zM99 604l156 133l158 -133l-58 -45l-100 85l-99 -85z" />
    <glyph glyph-name="udieresis" unicode="&#xfc;" horiz-adv-x="512" 
d="M150 470v-262q0 -27 1.5 -46t8 -39.5t17.5 -33t31 -20.5t48 -8t48 8t31 20.5t17.5 33t8 39.5t1.5 46v262h80v-271q0 -212 -186 -212t-186 212v271h80zM158 705q22 0 38 -15.5t16 -38.5t-16 -38.5t-38 -15.5t-38 15.5t-16 38.5t16 38.5t38 15.5zM355 705q23 0 38.5 -15.5
t15.5 -38.5t-15.5 -38.5t-38.5 -15.5t-38.5 15.5t-15.5 38.5t15.5 38.5t38.5 15.5z" />
    <glyph glyph-name="yacute" unicode="&#xfd;" horiz-adv-x="498" 
d="M214 44l-216 426h93l166 -337l152 337h91l-347 -734h-91zM327 744l84 -38l-153 -154l-50 28z" />
    <glyph glyph-name="thorn" unicode="&#xfe;" horiz-adv-x="577" 
d="M152 825v-422h2q60 80 162 80q100 0 162.5 -73.5t62.5 -175.5q0 -104 -61.5 -175.5t-164.5 -71.5q-102 0 -161 79h-2v-330h-80v1089h80zM301 409q-67 0 -110 -50t-43 -119q0 -73 41.5 -126t112.5 -53q74 0 115.5 51.5t41.5 126.5q0 73 -43 121.5t-115 48.5z" />
    <glyph glyph-name="ydieresis" unicode="&#xff;" horiz-adv-x="498" 
d="M214 44l-216 426h93l166 -337l152 337h91l-347 -734h-91zM156 705q22 0 38 -15.5t16 -38.5t-16 -38.5t-38 -15.5t-38 15.5t-16 38.5t16 38.5t38 15.5zM353 705q23 0 38.5 -15.5t15.5 -38.5t-15.5 -38.5t-38.5 -15.5t-38.5 15.5t-15.5 38.5t15.5 38.5t38.5 15.5z" />
    <glyph glyph-name="Amacron" unicode="&#x100;" horiz-adv-x="699" 
d="M511 214h-322l-91 -214h-92l348 790l339 -790h-93zM478 292l-126 302l-129 -302h255zM187 941h342v-68h-342v68z" />
    <glyph glyph-name="amacron" unicode="&#x101;" horiz-adv-x="577" 
d="M271 409q-67 0 -110 -50t-43 -119q0 -73 41.5 -126t112.5 -53q74 0 115.5 51.5t41.5 126.5q0 73 -43 121.5t-115 48.5zM505 470v-470h-80v65h-2q-61 -78 -162 -78q-100 0 -162.5 73t-62.5 174q0 104 62 176.5t164 72.5q99 0 161 -80h2v67h80zM132 682h342v-68h-342v68z
" />
    <glyph glyph-name="Abreve" unicode="&#x102;" horiz-adv-x="699" 
d="M511 214h-322l-91 -214h-92l348 790l339 -790h-93zM478 292l-126 302l-129 -302h255zM192 975h69q26 -68 95 -68t95 68h69q-8 -61 -54.5 -98.5t-109.5 -37.5q-62 0 -109 37.5t-55 98.5z" />
    <glyph glyph-name="abreve" unicode="&#x103;" horiz-adv-x="577" 
d="M271 409q-67 0 -110 -50t-43 -119q0 -73 41.5 -126t112.5 -53q74 0 115.5 51.5t41.5 126.5q0 73 -43 121.5t-115 48.5zM505 470v-470h-80v65h-2q-61 -78 -162 -78q-100 0 -162.5 73t-62.5 174q0 104 62 176.5t164 72.5q99 0 161 -80h2v67h80zM125 716h69q26 -68 95 -68
t95 68h69q-8 -61 -54.5 -98.5t-109.5 -37.5q-62 0 -109 37.5t-55 98.5z" />
    <glyph glyph-name="Aogonek" unicode="&#x104;" horiz-adv-x="699" 
d="M608 0h-8l-89 214h-322l-91 -214h-92l348 790l339 -790h-21q-24 -18 -36.5 -28.5t-28 -32t-15.5 -41.5q0 -50 53 -50q31 0 60 18l-8 -61q-30 -15 -63 -15q-44 0 -76.5 25t-32.5 68q0 66 83 117zM478 292l-126 302l-129 -302h255z" />
    <glyph glyph-name="aogonek" unicode="&#x105;" horiz-adv-x="577" 
d="M435 0h-10v65h-2q-61 -78 -162 -78t-163 72.5t-62 174.5q0 104 62 176.5t164 72.5q100 0 161 -80h2v67h80v-470h-6q-24 -18 -36.5 -28.5t-28 -32t-15.5 -41.5q0 -50 53 -50q32 0 60 18l-8 -61q-30 -15 -63 -15q-44 0 -76.5 25t-32.5 68q0 66 83 117zM271 409
q-67 0 -110 -50.5t-43 -118.5q0 -73 41.5 -126t112.5 -53q74 0 115.5 51.5t41.5 126.5q0 72 -43 121t-115 49z" />
    <glyph glyph-name="Cacute" unicode="&#x106;" horiz-adv-x="717" 
d="M651 693v-104q-97 100 -230 100q-125 0 -214.5 -93t-89.5 -219t90 -219t216 -93q128 0 228 100v-104q-102 -74 -225 -74q-160 0 -276.5 113.5t-116.5 273.5q0 162 115.5 277.5t277.5 115.5q126 0 225 -74zM463 1003l84 -38l-153 -154l-50 28z" />
    <glyph glyph-name="cacute" unicode="&#x107;" horiz-adv-x="476" 
d="M425 436v-106h-2q-62 79 -146 79q-71 0 -118.5 -51t-47.5 -123t45 -123t117 -51q91 0 153 81h2v-107q-71 -48 -149 -48q-107 0 -178.5 71t-71.5 177q0 104 73.5 176t177.5 72q79 0 145 -47zM337 744l84 -38l-153 -154l-50 28z" />
    <glyph glyph-name="Ccircumflex" unicode="&#x108;" horiz-adv-x="717" 
d="M651 693v-104q-97 100 -230 100q-125 0 -214.5 -93t-89.5 -219t90 -219t216 -93q128 0 228 100v-104q-102 -74 -225 -74q-160 0 -276.5 113.5t-116.5 273.5q0 162 115.5 277.5t277.5 115.5q126 0 225 -74zM257 863l156 133l158 -133l-58 -45l-100 85l-99 -85z" />
    <glyph glyph-name="ccircumflex" unicode="&#x109;" horiz-adv-x="476" 
d="M425 436v-106h-2q-62 79 -146 79q-71 0 -118.5 -51t-47.5 -123t45 -123t117 -51q91 0 153 81h2v-107q-71 -48 -149 -48q-107 0 -178.5 71t-71.5 177q0 104 73.5 176t177.5 72q79 0 145 -47zM118 604l156 133l158 -133l-58 -45l-100 85l-99 -85z" />
    <glyph glyph-name="Cdotaccent" unicode="&#x10a;" horiz-adv-x="717" 
d="M651 693v-104q-97 100 -230 100q-125 0 -214.5 -93t-89.5 -219t90 -219t216 -93q128 0 228 100v-104q-102 -74 -225 -74q-160 0 -276.5 113.5t-116.5 273.5q0 162 115.5 277.5t277.5 115.5q126 0 225 -74zM412 975q23 0 38.5 -15.5t15.5 -38.5t-15.5 -38.5t-38.5 -15.5
t-38.5 15.5t-15.5 38.5t15.5 38.5t38.5 15.5z" />
    <glyph glyph-name="cdotaccent" unicode="&#x10b;" horiz-adv-x="476" 
d="M425 436v-106h-2q-62 79 -146 79q-71 0 -118.5 -51t-47.5 -123t45 -123t117 -51q91 0 153 81h2v-107q-71 -48 -149 -48q-107 0 -178.5 71t-71.5 177q0 104 73.5 176t177.5 72q79 0 145 -47zM277 716q23 0 38.5 -15.5t15.5 -38.5t-15.5 -38.5t-38.5 -15.5t-38.5 15.5
t-15.5 38.5t15.5 38.5t38.5 15.5z" />
    <glyph glyph-name="Ccaron" unicode="&#x10c;" horiz-adv-x="717" 
d="M651 693v-104q-97 100 -230 100q-125 0 -214.5 -93t-89.5 -219t90 -219t216 -93q128 0 228 100v-104q-102 -74 -225 -74q-160 0 -276.5 113.5t-116.5 273.5q0 162 115.5 277.5t277.5 115.5q126 0 225 -74zM571 951l-156 -133l-158 133l58 45l100 -85l99 85z" />
    <glyph glyph-name="ccaron" unicode="&#x10d;" horiz-adv-x="476" 
d="M425 436v-106h-2q-62 79 -146 79q-71 0 -118.5 -51t-47.5 -123t45 -123t117 -51q91 0 153 81h2v-107q-71 -48 -149 -48q-107 0 -178.5 71t-71.5 177q0 104 73.5 176t177.5 72q79 0 145 -47zM441 692l-156 -133l-158 133l58 45l100 -85l99 85z" />
    <glyph glyph-name="Dcaron" unicode="&#x10e;" horiz-adv-x="678" 
d="M76 0v754h142q94 0 163 -19t131 -72q125 -108 125 -287q0 -171 -123 -281q-63 -56 -131.5 -75.5t-166.5 -19.5h-140zM160 78h61q77 0 133.5 16.5t104.5 61.5q94 88 94 221q0 140 -98 226q-48 43 -103.5 58t-130.5 15h-61v-598zM465 951l-156 -133l-158 133l58 45l100 -85
l99 85z" />
    <glyph glyph-name="dcaron" unicode="&#x10f;" horiz-adv-x="577" 
d="M271 409q-67 0 -110 -50t-43 -119q0 -73 41.5 -126t112.5 -53q74 0 115.5 51.5t41.5 126.5q0 73 -43 121.5t-115 48.5zM425 0v65h-2q-60 -78 -162 -78q-100 0 -162.5 73t-62.5 174q0 104 62 176.5t164 72.5q100 0 161 -80h2v422h80v-825h-80zM704 735l-99 -188l-55 16
l67 189z" />
    <glyph glyph-name="Dcroat" unicode="&#x110;" horiz-adv-x="678" 
d="M76 0v370h-76v72h76v312h142q94 0 163 -19t131 -72q125 -108 125 -287q0 -171 -123 -281q-63 -56 -131.5 -75.5t-166.5 -19.5h-140zM160 78h61q77 0 133 16.5t105 61.5q94 88 94 221q0 140 -98 226q-48 43 -103.5 58t-130.5 15h-61v-234h134v-72h-134v-292z" />
    <glyph glyph-name="dcroat" unicode="&#x111;" horiz-adv-x="577" 
d="M425 0v65h-2q-60 -78 -162 -78q-101 0 -163 72.5t-62 174.5q0 104 62 176.5t164 72.5q100 0 161 -80h2v221h-136v51h136v150h80v-150h60v-51h-60v-624h-80zM271 409q-67 0 -110 -50.5t-43 -118.5q0 -73 41.5 -126t112.5 -53q74 0 115.5 51.5t41.5 126.5q0 72 -43 121
t-115 49z" />
    <glyph glyph-name="Emacron" unicode="&#x112;" horiz-adv-x="534" 
d="M76 0v754h391v-78h-307v-224h298v-78h-298v-296h307v-78h-391zM98 941h342v-68h-342v68z" />
    <glyph glyph-name="emacron" unicode="&#x113;" horiz-adv-x="519" 
d="M485 218h-369q1 -66 44 -111.5t110 -45.5q89 0 143 97l68 -39q-71 -132 -217 -132q-103 0 -166.5 69.5t-63.5 172.5q0 109 61 181.5t167 72.5q109 0 169 -77.5t54 -187.5zM120 286h281q-8 52 -47 87.5t-91 35.5t-94 -36t-49 -87zM92 682h342v-68h-342v68z" />
    <glyph glyph-name="Ebreve" unicode="&#x114;" horiz-adv-x="534" 
d="M76 0v754h391v-78h-307v-224h298v-78h-298v-296h307v-78h-391zM108 975h69q26 -68 95 -68t95 68h69q-8 -61 -54.5 -98.5t-109.5 -37.5q-62 0 -109 37.5t-55 98.5z" />
    <glyph glyph-name="ebreve" unicode="&#x115;" horiz-adv-x="519" 
d="M485 218h-369q1 -66 44 -111.5t110 -45.5q89 0 143 97l68 -39q-71 -132 -217 -132q-103 0 -166.5 69.5t-63.5 172.5q0 109 61 181.5t167 72.5q109 0 169 -77.5t54 -187.5zM120 286h281q-8 52 -47 87.5t-91 35.5t-94 -36t-49 -87zM98 716h69q26 -68 95 -68t95 68h69
q-8 -61 -54.5 -98.5t-109.5 -37.5q-62 0 -109 37.5t-55 98.5z" />
    <glyph glyph-name="Edotaccent" unicode="&#x116;" horiz-adv-x="534" 
d="M76 0v754h391v-78h-307v-224h298v-78h-298v-296h307v-78h-391zM280 975q23 0 38.5 -15.5t15.5 -38.5t-15.5 -38.5t-38.5 -15.5t-38.5 15.5t-15.5 38.5t15.5 38.5t38.5 15.5z" />
    <glyph glyph-name="edotaccent" unicode="&#x117;" horiz-adv-x="519" 
d="M485 218h-369q1 -66 44 -111.5t110 -45.5q89 0 143 97l68 -39q-71 -132 -217 -132q-103 0 -166.5 69.5t-63.5 172.5q0 109 61 181.5t167 72.5q109 0 169 -77.5t54 -187.5zM120 286h281q-8 52 -47 87.5t-91 35.5t-94 -36t-49 -87zM264 716q23 0 38.5 -15.5t15.5 -38.5
t-15.5 -38.5t-38.5 -15.5t-38.5 15.5t-15.5 38.5t15.5 38.5t38.5 15.5z" />
    <glyph glyph-name="Eogonek" unicode="&#x118;" horiz-adv-x="534" 
d="M76 0v754h391v-78h-307v-224h298v-78h-298v-296h307v-78h-44q-24 -18 -36.5 -28.5t-28 -32t-15.5 -41.5q0 -50 53 -50q32 0 60 18l-8 -61q-30 -15 -63 -15q-44 0 -76.5 25t-32.5 68q0 66 83 117h-283z" />
    <glyph glyph-name="eogonek" unicode="&#x119;" horiz-adv-x="519" 
d="M485 218h-369q0 -66 43.5 -111.5t110.5 -45.5q89 0 143 97l68 -39q-55 -103 -162 -126q-70 -52 -70 -95q0 -50 53 -50q32 0 60 18l-8 -61q-30 -15 -63 -15q-44 0 -76.5 25t-32.5 68q0 59 64 105q-96 6 -154 74t-58 167q0 109 60.5 181.5t167.5 72.5q110 0 169.5 -77.5
t53.5 -187.5zM120 286h281q-8 52 -47 87.5t-91 35.5t-93.5 -36t-49.5 -87z" />
    <glyph glyph-name="Ecaron" unicode="&#x11a;" horiz-adv-x="534" 
d="M76 0v754h391v-78h-307v-224h298v-78h-298v-296h307v-78h-391zM430 951l-156 -133l-158 133l58 45l100 -85l99 85z" />
    <glyph glyph-name="ecaron" unicode="&#x11b;" horiz-adv-x="519" 
d="M485 218h-369q1 -66 44 -111.5t110 -45.5q89 0 143 97l68 -39q-71 -132 -217 -132q-103 0 -166.5 69.5t-63.5 172.5q0 109 61 181.5t167 72.5q109 0 169 -77.5t54 -187.5zM120 286h281q-8 52 -47 87.5t-91 35.5t-94 -36t-49 -87zM419 692l-156 -133l-158 133l58 45
l100 -85l99 85z" />
    <glyph glyph-name="Gcircumflex" unicode="&#x11c;" horiz-adv-x="820" 
d="M463 379h314q2 -86 -14 -148t-64 -118q-51 -60 -125.5 -93t-153.5 -33q-159 0 -273.5 114.5t-114.5 273.5q0 162 115 277t278 115q194 0 319 -163l-61 -57q-101 142 -259 142q-128 0 -218 -93t-90 -222q0 -123 88 -213q43 -43 100 -69.5t114 -26.5q103 0 186 67.5
t83 168.5h-224v78zM258 863l156 133l158 -133l-58 -45l-100 85l-99 -85z" />
    <glyph glyph-name="gcircumflex" unicode="&#x11d;" horiz-adv-x="580" 
d="M266 409q-67 0 -110 -50t-43 -119q0 -73 41.5 -126t112.5 -53q74 0 115.5 51.5t41.5 126.5q0 73 -43 121.5t-115 48.5zM500 470v-447q0 -49 -1.5 -74.5t-12.5 -62t-34 -65.5q-65 -83 -182 -83q-100 0 -164.5 59t-66.5 157h80q1 -64 43 -103t107 -39q45 0 75.5 15.5
t46.5 44t22.5 61.5t6.5 76v56h-2q-28 -37 -71.5 -57.5t-91.5 -20.5q-100 0 -162 72t-62 174q0 103 63 176.5t164 73.5q100 0 160 -80h2v67h80zM122 604l156 133l158 -133l-58 -45l-100 85l-99 -85z" />
    <glyph glyph-name="Gbreve" unicode="&#x11e;" horiz-adv-x="820" 
d="M463 379h314q2 -86 -14 -148t-64 -118q-51 -60 -125.5 -93t-153.5 -33q-159 0 -273.5 114.5t-114.5 273.5q0 162 115 277t278 115q194 0 319 -163l-61 -57q-101 142 -259 142q-128 0 -218 -93t-90 -222q0 -123 88 -213q43 -43 100 -69.5t114 -26.5q103 0 186 67.5
t83 168.5h-224v78zM250 975h69q26 -68 95 -68t95 68h69q-8 -61 -54.5 -98.5t-109.5 -37.5q-62 0 -109 37.5t-55 98.5z" />
    <glyph glyph-name="gbreve" unicode="&#x11f;" horiz-adv-x="580" 
d="M266 409q-67 0 -110 -50t-43 -119q0 -73 41.5 -126t112.5 -53q74 0 115.5 51.5t41.5 126.5q0 73 -43 121.5t-115 48.5zM500 470v-447q0 -49 -1.5 -74.5t-12.5 -62t-34 -65.5q-65 -83 -182 -83q-100 0 -164.5 59t-66.5 157h80q1 -64 43 -103t107 -39q45 0 75.5 15.5
t46.5 44t22.5 61.5t6.5 76v56h-2q-28 -37 -71.5 -57.5t-91.5 -20.5q-100 0 -162 72t-62 174q0 103 63 176.5t164 73.5q100 0 160 -80h2v67h80zM115 716h69q26 -68 95 -68t95 68h69q-8 -61 -54.5 -98.5t-109.5 -37.5q-62 0 -109 37.5t-55 98.5z" />
    <glyph glyph-name="Gdotaccent" unicode="&#x120;" horiz-adv-x="820" 
d="M463 379h314q2 -86 -14 -148t-64 -118q-51 -60 -125.5 -93t-153.5 -33q-159 0 -273.5 114.5t-114.5 273.5q0 162 115 277t278 115q194 0 319 -163l-61 -57q-101 142 -259 142q-128 0 -218 -93t-90 -222q0 -123 88 -213q43 -43 100 -69.5t114 -26.5q103 0 186 67.5
t83 168.5h-224v78zM413 975q23 0 38.5 -15.5t15.5 -38.5t-15.5 -38.5t-38.5 -15.5t-38.5 15.5t-15.5 38.5t15.5 38.5t38.5 15.5z" />
    <glyph glyph-name="gdotaccent" unicode="&#x121;" horiz-adv-x="580" 
d="M266 409q-67 0 -110 -50t-43 -119q0 -73 41.5 -126t112.5 -53q74 0 115.5 51.5t41.5 126.5q0 73 -43 121.5t-115 48.5zM500 470v-447q0 -49 -1.5 -74.5t-12.5 -62t-34 -65.5q-65 -83 -182 -83q-100 0 -164.5 59t-66.5 157h80q1 -64 43 -103t107 -39q45 0 75.5 15.5
t46.5 44t22.5 61.5t6.5 76v56h-2q-28 -37 -71.5 -57.5t-91.5 -20.5q-100 0 -162 72t-62 174q0 103 63 176.5t164 73.5q100 0 160 -80h2v67h80zM283 716q23 0 38.5 -15.5t15.5 -38.5t-15.5 -38.5t-38.5 -15.5t-38.5 15.5t-15.5 38.5t15.5 38.5t38.5 15.5z" />
    <glyph glyph-name="Gcommaaccent" unicode="&#x122;" horiz-adv-x="820" 
d="M463 379h314q2 -86 -14 -148t-64 -118q-51 -60 -125.5 -93t-153.5 -33q-159 0 -273.5 114.5t-114.5 273.5q0 162 115 277t278 115q194 0 319 -163l-61 -57q-101 142 -259 142q-128 0 -218 -93t-90 -222q0 -123 88 -213q43 -43 100 -69.5t114 -26.5q103 0 186 67.5
t83 168.5h-224v78zM355 -274v48q67 10 67 79h-47v90h102v-81q0 -61 -33.5 -95.5t-88.5 -40.5z" />
    <glyph glyph-name="gcommaaccent" unicode="&#x123;" horiz-adv-x="580" 
d="M266 409q-67 0 -110 -50t-43 -119q0 -73 41.5 -126t112.5 -53q74 0 115.5 51.5t41.5 126.5q0 73 -43 121.5t-115 48.5zM500 470v-447q0 -49 -1.5 -74.5t-12.5 -62t-34 -65.5q-65 -83 -182 -83q-100 0 -164.5 59t-66.5 157h80q1 -64 43 -103t107 -39q45 0 75.5 15.5
t46.5 44t22.5 61.5t6.5 76v56h-2q-28 -37 -71.5 -57.5t-91.5 -20.5q-100 0 -162 72t-62 174q0 103 63 176.5t164 73.5q100 0 160 -80h2v67h80zM341 798v-48q-67 -10 -67 -79h47v-90h-102v81q0 61 33.5 95.5t88.5 40.5z" />
    <glyph glyph-name="Hcircumflex" unicode="&#x124;" horiz-adv-x="714" 
d="M164 448h386v306h84v-754h-84v370h-386v-370h-84v754h84v-306zM203 863l156 133l158 -133l-58 -45l-100 85l-99 -85z" />
    <glyph glyph-name="hcircumflex" unicode="&#x125;" horiz-adv-x="528" 
d="M76 825h80v-410l2 -2q51 70 134 70q90 0 125 -55t35 -149v-279h-80v265q0 34 -2.5 55.5t-11.5 44t-30.5 33.5t-54.5 11q-32 0 -54.5 -12t-34.5 -29t-18.5 -44t-8 -48.5t-1.5 -52.5v-223h-80v825zM31 919l156 133l158 -133l-58 -45l-100 85l-99 -85z" />
    <glyph glyph-name="Hbar" unicode="&#x126;" horiz-adv-x="714" 
d="M164 613h386v141h84v-754h-84v370h-386v-370h-84v754h84v-141zM164 448h386v114h-386v-114z" />
    <glyph glyph-name="hbar" unicode="&#x127;" horiz-adv-x="528" 
d="M76 825h80v-150h139v-51h-139v-209l2 -2q51 70 134 70q90 0 125 -55t35 -149v-279h-80v265q0 34 -2.5 55.5t-11.5 44t-30.5 33.5t-54.5 11q-31 0 -53.5 -12t-34.5 -29t-19 -44t-8.5 -49t-1.5 -52v-223h-80v624h-57v51h57v150z" />
    <glyph glyph-name="Itilde" unicode="&#x128;" horiz-adv-x="239" 
d="M162 754v-754h-84v754h84zM-4 847l-49 39q15 25 26.5 39.5t31.5 27t44 12.5q35 0 81 -23q52 -23 64 -23q31 0 56 48l47 -38q-15 -35 -43 -58t-63 -23q-27 0 -75 23q-50 22 -70 22q-13 0 -23 -7.5t-15 -15.5t-12 -23z" />
    <glyph glyph-name="itilde" unicode="&#x129;" horiz-adv-x="262" 
d="M171 470v-470h-80v470h80zM8 588l-49 39q45 79 102 79q35 0 81 -23q52 -23 64 -23q30 0 56 48l47 -38q-14 -35 -42.5 -58t-63.5 -23q-27 0 -75 23q-50 22 -70 22q-19 0 -29.5 -12t-20.5 -34z" />
    <glyph glyph-name="Imacron" unicode="&#x12a;" horiz-adv-x="239" 
d="M162 754v-754h-84v754h84zM-51 941h342v-68h-342v68z" />
    <glyph glyph-name="imacron" unicode="&#x12b;" horiz-adv-x="262" 
d="M171 470v-470h-80v470h80zM2 682h262v-68h-262v68z" />
    <glyph glyph-name="Iogonek" unicode="&#x12e;" horiz-adv-x="239" 
d="M85 0h-7v754h84v-754h-13q-24 -18 -36.5 -28.5t-28 -32t-15.5 -41.5q0 -50 53 -50q32 0 60 18l-8 -61q-30 -15 -63 -15q-44 0 -76.5 25t-32.5 68q0 66 83 117z" />
    <glyph glyph-name="iogonek" unicode="&#x12f;" horiz-adv-x="262" 
d="M99 0h-8v470h80v-470h-8q-24 -18 -36.5 -28.5t-28 -32t-15.5 -41.5q0 -50 53 -50q32 0 60 18l-8 -61q-30 -15 -63 -15q-44 0 -76.5 25t-32.5 68q0 66 83 117zM131 704q23 0 40 -17t17 -40q0 -24 -17 -40.5t-40 -16.5t-40 16.5t-17 40.5q0 23 17 40t40 17z" />
    <glyph glyph-name="Idotaccent" unicode="&#x130;" horiz-adv-x="239" 
d="M162 754v-754h-84v754h84zM133 975q23 0 38.5 -15.5t15.5 -38.5t-15.5 -38.5t-38.5 -15.5t-38.5 15.5t-15.5 38.5t15.5 38.5t38.5 15.5z" />
    <glyph glyph-name="dotlessi" unicode="&#x131;" horiz-adv-x="262" 
d="M171 470v-470h-80v470h80z" />
    <glyph glyph-name="Jcircumflex" unicode="&#x134;" horiz-adv-x="314" 
d="M236 754v-597q0 -40 -1.5 -62.5t-10 -55t-26.5 -55.5q-47 -62 -130 -62q-68 0 -134 56l47 65q46 -43 89 -43q20 0 34.5 7t23 21.5t14 27.5t7.5 34.5t2.5 33.5t0.5 33v597h84zM38 863l156 133l158 -133l-58 -45l-100 85l-99 -85z" />
    <glyph glyph-name="jcircumflex" unicode="&#x135;" horiz-adv-x="262" 
d="M171 470v-734h-80v734h80zM-25 609l156 133l158 -133l-58 -45l-100 85l-99 -85z" />
    <glyph glyph-name="Kcommaaccent" unicode="&#x136;" horiz-adv-x="611" 
d="M160 431l321 323h113l-354 -351l366 -403h-116l-309 346l-21 -21v-325h-84v754h84v-323zM236 -274v48q67 10 67 79h-47v90h102v-81q0 -61 -33.5 -95.5t-88.5 -40.5z" />
    <glyph glyph-name="kcommaaccent" unicode="&#x137;" horiz-adv-x="470" 
d="M152 825v-529l171 174h107l-201 -200l239 -270h-106l-189 214l-21 -21v-193h-80v825h80zM173 -274v48q67 10 67 79h-47v90h102v-81q0 -61 -33.5 -95.5t-88.5 -40.5z" />
    <glyph glyph-name="Lacute" unicode="&#x139;" horiz-adv-x="375" 
d="M160 754v-676h208v-78h-292v754h84zM206 992l84 -38l-153 -154l-50 28z" />
    <glyph glyph-name="lacute" unicode="&#x13a;" horiz-adv-x="227" 
d="M154 825v-825h-80v825h80zM194 1038l84 -38l-153 -154l-50 28z" />
    <glyph glyph-name="Lcommaaccent" unicode="&#x13b;" horiz-adv-x="375" 
d="M160 754v-676h208v-78h-292v754h84zM143 -274v48q67 10 67 79h-47v90h102v-81q0 -61 -33.5 -95.5t-88.5 -40.5z" />
    <glyph glyph-name="lcommaaccent" unicode="&#x13c;" horiz-adv-x="227" 
d="M154 825v-825h-80v825h80zM44 -274v48q67 10 67 79h-47v90h102v-81q0 -61 -33.5 -95.5t-88.5 -40.5z" />
    <glyph glyph-name="Lcaron" unicode="&#x13d;" horiz-adv-x="375" 
d="M160 754v-676h208v-78h-292v754h84zM376 735l-99 -188l-55 16l67 189z" />
    <glyph glyph-name="lcaron" unicode="&#x13e;" horiz-adv-x="227" 
d="M154 825v-825h-80v825h80zM344 735l-99 -188l-55 16l67 189z" />
    <glyph glyph-name="Ldot" unicode="&#x13f;" horiz-adv-x="375" 
d="M160 754v-676h208v-78h-292v754h84zM313 497q23 0 38.5 -15.5t15.5 -38.5t-15.5 -38.5t-38.5 -15.5t-38.5 15.5t-15.5 38.5t15.5 38.5t38.5 15.5z" />
    <glyph glyph-name="ldot" unicode="&#x140;" horiz-adv-x="318" 
d="M154 825v-825h-80v825h80zM273 529q23 0 38.5 -15.5t15.5 -38.5t-15.5 -38.5t-38.5 -15.5t-38.5 15.5t-15.5 38.5t15.5 38.5t38.5 15.5z" />
    <glyph glyph-name="Lslash" unicode="&#x141;" horiz-adv-x="375" 
d="M76 0v319l-76 -49v80l76 49v355h84v-300l130 84v-80l-130 -84v-296h208v-78h-292z" />
    <glyph glyph-name="lslash" unicode="&#x142;" horiz-adv-x="258" 
d="M89 0v370l-74 -49v71l74 49v384h80v-330l74 49v-71l-74 -49v-424h-80z" />
    <glyph glyph-name="Nacute" unicode="&#x143;" horiz-adv-x="834" 
d="M81 0v786l588 -616v584h84v-788l-588 615v-581h-84zM507 1003l84 -38l-153 -154l-50 28z" />
    <glyph glyph-name="nacute" unicode="&#x144;" horiz-adv-x="528" 
d="M156 470v-57h2q51 70 134 70q90 0 125 -55t35 -149v-279h-80v265q0 34 -2.5 55.5t-11.5 44t-30.5 33.5t-54.5 11q-32 0 -54.5 -12t-34.5 -29t-18.5 -44t-8 -48.5t-1.5 -52.5v-223h-80v470h80zM343 744l84 -38l-153 -154l-50 28z" />
    <glyph glyph-name="Ncommaaccent" unicode="&#x145;" horiz-adv-x="834" 
d="M81 0v786l588 -616v584h84v-788l-588 615v-581h-84zM337 -274v48q67 10 67 79h-47v90h102v-81q0 -61 -33.5 -95.5t-88.5 -40.5z" />
    <glyph glyph-name="ncommaaccent" unicode="&#x146;" horiz-adv-x="528" 
d="M156 470v-57h2q51 70 134 70q90 0 125 -55t35 -149v-279h-80v265q0 34 -2.5 55.5t-11.5 44t-30.5 33.5t-54.5 11q-32 0 -54.5 -12t-34.5 -29t-18.5 -44t-8 -48.5t-1.5 -52.5v-223h-80v470h80zM189 -274v48q67 10 67 79h-47v90h102v-81q0 -61 -33.5 -95.5t-88.5 -40.5z
" />
    <glyph glyph-name="Ncaron" unicode="&#x147;" horiz-adv-x="834" 
d="M81 0v786l588 -616v584h84v-788l-588 615v-581h-84zM576 951l-156 -133l-158 133l58 45l100 -85l99 85z" />
    <glyph glyph-name="ncaron" unicode="&#x148;" horiz-adv-x="528" 
d="M156 470v-57h2q51 70 134 70q90 0 125 -55t35 -149v-279h-80v265q0 34 -2.5 55.5t-11.5 44t-30.5 33.5t-54.5 11q-32 0 -54.5 -12t-34.5 -29t-18.5 -44t-8 -48.5t-1.5 -52.5v-223h-80v470h80zM425 692l-156 -133l-158 133l58 45l100 -85l99 85z" />
    <glyph glyph-name="Omacron" unicode="&#x14c;" horiz-adv-x="862" 
d="M431 767q162 0 277.5 -114.5t115.5 -276.5t-115.5 -275.5t-277.5 -113.5t-277.5 113.5t-115.5 275.5t115.5 276.5t277.5 114.5zM431 689q-129 0 -219 -91.5t-90 -220.5q0 -128 90.5 -220t218.5 -92t218.5 92t90.5 220q0 129 -90 220.5t-219 91.5zM261 941h342v-68h-342
v68z" />
    <glyph glyph-name="omacron" unicode="&#x14d;" horiz-adv-x="562" 
d="M281 -13q-103 0 -175 72t-72 175q0 104 72 176.5t175 72.5t175 -72.5t72 -176.5q0 -103 -72 -175t-175 -72zM281 409q-73 0 -120 -50.5t-47 -123.5t47 -123.5t120 -50.5t120 50.5t47 123.5t-47 123.5t-120 50.5zM112 682h342v-68h-342v68z" />
    <glyph glyph-name="Obreve" unicode="&#x14e;" horiz-adv-x="862" 
d="M431 767q162 0 277.5 -114.5t115.5 -276.5t-115.5 -275.5t-277.5 -113.5t-277.5 113.5t-115.5 275.5t115.5 276.5t277.5 114.5zM431 689q-129 0 -219 -91.5t-90 -220.5q0 -128 90.5 -220t218.5 -92t218.5 92t90.5 220q0 129 -90 220.5t-219 91.5zM266 975h69
q26 -68 95 -68t95 68h69q-8 -61 -54.5 -98.5t-109.5 -37.5q-62 0 -109 37.5t-55 98.5z" />
    <glyph glyph-name="obreve" unicode="&#x14f;" horiz-adv-x="562" 
d="M281 -13q-103 0 -175 72t-72 175q0 104 72 176.5t175 72.5t175 -72.5t72 -176.5q0 -103 -72 -175t-175 -72zM281 409q-73 0 -120 -50.5t-47 -123.5t47 -123.5t120 -50.5t120 50.5t47 123.5t-47 123.5t-120 50.5zM119 716h69q26 -68 95 -68t95 68h69q-8 -61 -54.5 -98.5
t-109.5 -37.5q-62 0 -109 37.5t-55 98.5z" />
    <glyph glyph-name="Ohungarumlaut" unicode="&#x150;" horiz-adv-x="862" 
d="M431 767q162 0 277.5 -114.5t115.5 -276.5t-115.5 -275.5t-277.5 -113.5t-277.5 113.5t-115.5 275.5t115.5 276.5t277.5 114.5zM431 689q-129 0 -219 -91.5t-90 -220.5q0 -128 90.5 -220t218.5 -92t218.5 92t90.5 220q0 129 -90 220.5t-219 91.5zM478 1001l-95 -159
l-40 11l59 162zM635 1001l-95 -159l-40 11l59 162z" />
    <glyph glyph-name="ohungarumlaut" unicode="&#x151;" horiz-adv-x="562" 
d="M281 -13q-103 0 -175 72t-72 175q0 104 72 176.5t175 72.5t175 -72.5t72 -176.5q0 -103 -72 -175t-175 -72zM281 409q-73 0 -120 -50.5t-47 -123.5t47 -123.5t120 -50.5t120 50.5t47 123.5t-47 123.5t-120 50.5zM317 742l-95 -159l-40 11l59 162zM474 742l-95 -159
l-40 11l59 162z" />
    <glyph glyph-name="OE" unicode="&#x152;" horiz-adv-x="1190" 
d="M729 0v145h-2q-49 -75 -127.5 -117t-168.5 -41q-162 0 -277.5 113.5t-115.5 275.5t115.5 276.5t277.5 114.5q89 0 167.5 -42.5t128.5 -118.5h2v148h394v-78h-310v-224h301v-78h-301v-296h310v-78h-394zM431 689q-129 0 -219 -91.5t-90 -220.5q0 -128 90.5 -220t218.5 -92
t218.5 92t90.5 220q0 129 -90 220.5t-219 91.5z" />
    <glyph glyph-name="oe" unicode="&#x153;" horiz-adv-x="940" 
d="M906 218h-371q1 -66 44 -111.5t110 -45.5q89 0 143 97l68 -39q-71 -132 -217 -132q-59 0 -113.5 30.5t-80.5 81.5q-30 -53 -87.5 -82.5t-120.5 -29.5q-103 0 -175 72t-72 175q0 104 72 176.5t175 72.5q67 -2 123.5 -32t84.5 -82q27 53 78.5 82.5t113.5 31.5
q109 0 170 -77.5t55 -187.5zM542 286h281q-8 52 -47 87.5t-91 35.5t-94 -36t-49 -87zM283 409q-73 0 -120 -50.5t-47 -123.5t47 -123.5t120 -50.5t120 50.5t47 123.5t-47 123.5t-120 50.5z" />
    <glyph glyph-name="Racute" unicode="&#x154;" horiz-adv-x="542" 
d="M160 676v-271h26q40 0 70.5 5t60 18.5t45 41.5t15.5 70q0 36 -11 61.5t-27 40t-43 22.5t-51.5 10t-59.5 2h-25zM160 331v-331h-84v754h109q58 0 104 -9t87 -31t63 -64.5t22 -103.5q0 -87 -51 -144t-138 -64l240 -338h-103l-228 331h-21zM296 1003l84 -38l-153 -154
l-50 28z" />
    <glyph glyph-name="racute" unicode="&#x155;" horiz-adv-x="335" 
d="M152 470v-51h2q25 33 46.5 48.5t57.5 15.5q33 0 72 -22l-38 -73q-31 21 -48 21q-92 0 -92 -174v-235h-80v470h80zM223 744l84 -38l-153 -154l-50 28z" />
    <glyph glyph-name="Rcommaaccent" unicode="&#x156;" horiz-adv-x="542" 
d="M160 676v-271h26q40 0 70.5 5t60 18.5t45 41.5t15.5 70q0 36 -11 61.5t-27 40t-43 22.5t-51.5 10t-59.5 2h-25zM160 331v-331h-84v754h109q58 0 104 -9t87 -31t63 -64.5t22 -103.5q0 -87 -51 -144t-138 -64l240 -338h-103l-228 331h-21zM189 -274v48q67 10 67 79h-47v90
h102v-81q0 -61 -33.5 -95.5t-88.5 -40.5z" />
    <glyph glyph-name="rcommaaccent" unicode="&#x157;" horiz-adv-x="335" 
d="M152 470v-51h2q25 33 46.5 48.5t57.5 15.5q33 0 72 -22l-38 -73q-31 21 -48 21q-92 0 -92 -174v-235h-80v470h80zM47 -274v48q67 10 67 79h-47v90h102v-81q0 -61 -33.5 -95.5t-88.5 -40.5z" />
    <glyph glyph-name="Rcaron" unicode="&#x158;" horiz-adv-x="542" 
d="M160 676v-271h26q40 0 70.5 5t60 18.5t45 41.5t15.5 70q0 36 -11 61.5t-27 40t-43 22.5t-51.5 10t-59.5 2h-25zM160 331v-331h-84v754h109q58 0 104 -9t87 -31t63 -64.5t22 -103.5q0 -87 -51 -144t-138 -64l240 -338h-103l-228 331h-21zM397 951l-156 -133l-158 133
l58 45l100 -85l99 85z" />
    <glyph glyph-name="rcaron" unicode="&#x159;" horiz-adv-x="335" 
d="M152 470v-51h2q25 33 46.5 48.5t57.5 15.5q33 0 72 -22l-38 -73q-31 21 -48 21q-92 0 -92 -174v-235h-80v470h80zM317 692l-156 -133l-158 133l58 45l100 -85l99 85z" />
    <glyph glyph-name="Sacute" unicode="&#x15a;" horiz-adv-x="559" 
d="M485 650l-67 -43q-47 82 -130 82q-51 0 -88 -33t-37 -84q0 -23 10 -42t31 -33.5t35.5 -22.5t41.5 -20l50 -22q43 -19 71 -35.5t55.5 -41t41 -58.5t13.5 -77q0 -98 -69 -165.5t-168 -67.5q-90 0 -153.5 53.5t-81.5 141.5l82 23q8 -59 50 -99.5t101 -40.5q62 0 108.5 42.5
t46.5 104.5q0 25 -8.5 46.5t-19 34.5t-33.5 28t-36 21.5t-42 19.5l-46 20q-80 36 -122 78t-42 115q0 85 62 138.5t149 53.5q63 0 114 -30.5t81 -86.5zM359 1003l84 -38l-153 -154l-50 28z" />
    <glyph glyph-name="sacute" unicode="&#x15b;" horiz-adv-x="399" 
d="M333 396l-67 -35q-9 20 -26 34t-38 14q-22 0 -40 -15t-18 -37q0 -9 2.5 -16.5t10 -14.5t13 -12t18.5 -11t19 -9t23 -10t23 -9q50 -21 79.5 -51t29.5 -84q0 -66 -46.5 -109.5t-112.5 -43.5q-59 0 -103 31.5t-63 87.5l71 30q17 -37 38 -56t58 -19q33 0 54.5 20t21.5 52
q0 29 -22 48t-53 31.5t-62 27t-53 42t-22 68.5q0 58 41 95.5t99 37.5q40 0 74.5 -24.5t50.5 -62.5zM272 744l84 -38l-153 -154l-50 28z" />
    <glyph glyph-name="Scircumflex" unicode="&#x15c;" horiz-adv-x="559" 
d="M485 650l-67 -43q-47 82 -130 82q-51 0 -88 -33t-37 -84q0 -23 10 -42t31 -33.5t35.5 -22.5t41.5 -20l50 -22q43 -19 71 -35.5t55.5 -41t41 -58.5t13.5 -77q0 -98 -69 -165.5t-168 -67.5q-90 0 -153.5 53.5t-81.5 141.5l82 23q8 -59 50 -99.5t101 -40.5q62 0 108.5 42.5
t46.5 104.5q0 25 -8.5 46.5t-19 34.5t-33.5 28t-36 21.5t-42 19.5l-46 20q-80 36 -122 78t-42 115q0 85 62 138.5t149 53.5q63 0 114 -30.5t81 -86.5zM141 863l156 133l158 -133l-58 -45l-100 85l-99 -85z" />
    <glyph glyph-name="scircumflex" unicode="&#x15d;" horiz-adv-x="399" 
d="M333 396l-67 -35q-9 20 -26 34t-38 14q-22 0 -40 -15t-18 -37q0 -9 2.5 -16.5t10 -14.5t13 -12t18.5 -11t19 -9t23 -10t23 -9q50 -21 79.5 -51t29.5 -84q0 -66 -46.5 -109.5t-112.5 -43.5q-59 0 -103 31.5t-63 87.5l71 30q17 -37 38 -56t58 -19q33 0 54.5 20t21.5 52
q0 29 -22 48t-53 31.5t-62 27t-53 42t-22 68.5q0 58 41 95.5t99 37.5q40 0 74.5 -24.5t50.5 -62.5zM48 604l156 133l158 -133l-58 -45l-100 85l-99 -85z" />
    <glyph glyph-name="Scedilla" unicode="&#x15e;" horiz-adv-x="559" 
d="M485 650l-67 -43q-47 82 -130 82q-51 0 -88 -33t-37 -84q0 -23 10 -42t31 -33.5t35.5 -22.5t41.5 -20l50 -22q43 -19 71 -35.5t55.5 -41t41 -58.5t13.5 -77q0 -98 -69 -165.5t-168 -67.5q-90 0 -153.5 53.5t-81.5 141.5l82 23q8 -59 50 -99.5t101 -40.5q62 0 108.5 42.5
t46.5 104.5q0 25 -8.5 46.5t-19 34.5t-33.5 28t-36 21.5t-42 19.5l-46 20q-80 36 -122 78t-42 115q0 85 62 138.5t149 53.5q63 0 114 -30.5t81 -86.5zM359 -53l-114 -146l-56 28l96 148z" />
    <glyph glyph-name="scedilla" unicode="&#x15f;" horiz-adv-x="399" 
d="M333 396l-67 -35q-9 20 -26 34t-38 14q-22 0 -40 -15t-18 -37q0 -9 2.5 -16.5t10 -14.5t13 -12t18.5 -11t19 -9t23 -10t23 -9q50 -21 79.5 -51t29.5 -84q0 -66 -46.5 -109.5t-112.5 -43.5q-59 0 -103 31.5t-63 87.5l71 30q17 -37 38 -56t58 -19q33 0 54.5 20t21.5 52
q0 29 -22 48t-53 31.5t-62 27t-53 42t-22 68.5q0 58 41 95.5t99 37.5q40 0 74.5 -24.5t50.5 -62.5zM278 -53l-114 -146l-56 28l96 148z" />
    <glyph glyph-name="Scaron" unicode="&#x160;" horiz-adv-x="559" 
d="M485 650l-67 -43q-47 82 -130 82q-51 0 -88 -33t-37 -84q0 -23 10 -42t31 -33.5t35.5 -22.5t41.5 -20l50 -22q43 -19 71 -35.5t55.5 -41t41 -58.5t13.5 -77q0 -98 -69 -165.5t-168 -67.5q-90 0 -153.5 53.5t-81.5 141.5l82 23q8 -59 50 -99.5t101 -40.5q62 0 108.5 42.5
t46.5 104.5q0 25 -8.5 46.5t-19 34.5t-33.5 28t-36 21.5t-42 19.5l-46 20q-80 36 -122 78t-42 115q0 85 62 138.5t149 53.5q63 0 114 -30.5t81 -86.5zM447 951l-156 -133l-158 133l58 45l100 -85l99 85z" />
    <glyph glyph-name="scaron" unicode="&#x161;" horiz-adv-x="399" 
d="M333 396l-67 -35q-9 20 -26 34t-38 14q-22 0 -40 -15t-18 -37q0 -9 2.5 -16.5t10 -14.5t13 -12t18.5 -11t19 -9t23 -10t23 -9q50 -21 79.5 -51t29.5 -84q0 -66 -46.5 -109.5t-112.5 -43.5q-59 0 -103 31.5t-63 87.5l71 30q17 -37 38 -56t58 -19q33 0 54.5 20t21.5 52
q0 29 -22 48t-53 31.5t-62 27t-53 42t-22 68.5q0 58 41 95.5t99 37.5q40 0 74.5 -24.5t50.5 -62.5zM358 692l-156 -133l-158 133l58 45l100 -85l99 85z" />
    <glyph glyph-name="Tcommaaccent" unicode="&#x162;" horiz-adv-x="470" 
d="M276 676v-676h-84v676h-182v78h450v-78h-184zM161 -274v48q67 10 67 79h-47v90h102v-81q0 -61 -33.5 -95.5t-88.5 -40.5z" />
    <glyph glyph-name="tcommaaccent" unicode="&#x163;" horiz-adv-x="240" 
d="M160 396v-396h-80v396h-49v74h49v169h80v-169h84v-74h-84zM56 -274v48q67 10 67 79h-47v90h102v-81q0 -61 -33.5 -95.5t-88.5 -40.5z" />
    <glyph glyph-name="Tcaron" unicode="&#x164;" horiz-adv-x="470" 
d="M276 676v-676h-84v676h-182v78h450v-78h-184zM392 951l-156 -133l-158 133l58 45l100 -85l99 85z" />
    <glyph glyph-name="tcaron" unicode="&#x165;" horiz-adv-x="240" 
d="M160 396v-396h-80v396h-49v74h49v169h80v-169h84v-74h-84zM382 735l-99 -188l-55 16l67 189z" />
    <glyph glyph-name="Tbar" unicode="&#x166;" horiz-adv-x="470" 
d="M276 676v-207h94v-51h-94v-418h-84v418h-98v51h98v207h-182v78h450v-78h-184z" />
    <glyph glyph-name="tbar" unicode="&#x167;" horiz-adv-x="240" 
d="M160 396v-94h65v-51h-65v-251h-80v251h-39v51h39v94h-49v74h49v169h80v-169h84v-74h-84z" />
    <glyph glyph-name="Utilde" unicode="&#x168;" horiz-adv-x="685" 
d="M158 754v-449q0 -43 0.5 -61t8.5 -51.5t24 -55.5q24 -33 66.5 -52.5t85.5 -19.5q41 0 81.5 18t66.5 49q17 21 26 51.5t10 51t1 58.5v12v449h84v-472q0 -72 -12.5 -119t-53.5 -90q-80 -86 -203 -86q-116 0 -195 77q-45 43 -59.5 93t-14.5 125v472h84zM221 847l-49 39
q15 25 26.5 39.5t31.5 27t44 12.5q35 0 81 -23q52 -23 64 -23q31 0 56 48l47 -38q-15 -35 -43 -58t-63 -23q-27 0 -75 23q-50 22 -70 22q-13 0 -23 -7.5t-15 -15.5t-12 -23z" />
    <glyph glyph-name="utilde" unicode="&#x169;" horiz-adv-x="512" 
d="M150 470v-262q0 -27 1.5 -46t8 -39.5t17.5 -33t31 -20.5t48 -8t48 8t31 20.5t17.5 33t8 39.5t1.5 46v262h80v-271q0 -212 -186 -212t-186 212v271h80zM133 588l-49 39q45 79 102 79q35 0 81 -23q52 -23 64 -23q30 0 56 48l47 -38q-14 -35 -42.5 -58t-63.5 -23
q-27 0 -75 23q-50 22 -70 22q-19 0 -29.5 -12t-20.5 -34z" />
    <glyph glyph-name="Umacron" unicode="&#x16a;" horiz-adv-x="685" 
d="M158 754v-449q0 -43 0.5 -61t8.5 -51.5t24 -55.5q24 -33 66.5 -52.5t85.5 -19.5q41 0 81.5 18t66.5 49q17 21 26 51.5t10 51t1 58.5v12v449h84v-472q0 -72 -12.5 -119t-53.5 -90q-80 -86 -203 -86q-116 0 -195 77q-45 43 -59.5 93t-14.5 125v472h84zM172 941h342v-68
h-342v68z" />
    <glyph glyph-name="umacron" unicode="&#x16b;" horiz-adv-x="512" 
d="M150 470v-262q0 -27 1.5 -46t8 -39.5t17.5 -33t31 -20.5t48 -8t48 8t31 20.5t17.5 33t8 39.5t1.5 46v262h80v-271q0 -212 -186 -212t-186 212v271h80zM84 682h342v-68h-342v68z" />
    <glyph glyph-name="Ubreve" unicode="&#x16c;" horiz-adv-x="685" 
d="M158 754v-449q0 -43 0.5 -61t8.5 -51.5t24 -55.5q24 -33 66.5 -52.5t85.5 -19.5q41 0 81.5 18t66.5 49q17 21 26 51.5t10 51t1 58.5v12v449h84v-472q0 -72 -12.5 -119t-53.5 -90q-80 -86 -203 -86q-116 0 -195 77q-45 43 -59.5 93t-14.5 125v472h84zM180 975h69
q26 -68 95 -68t95 68h69q-8 -61 -54.5 -98.5t-109.5 -37.5q-62 0 -109 37.5t-55 98.5z" />
    <glyph glyph-name="ubreve" unicode="&#x16d;" horiz-adv-x="512" 
d="M150 470v-262q0 -27 1.5 -46t8 -39.5t17.5 -33t31 -20.5t48 -8t48 8t31 20.5t17.5 33t8 39.5t1.5 46v262h80v-271q0 -212 -186 -212t-186 212v271h80zM94 716h69q26 -68 95 -68t95 68h69q-8 -61 -54.5 -98.5t-109.5 -37.5q-62 0 -109 37.5t-55 98.5z" />
    <glyph glyph-name="Uring" unicode="&#x16e;" horiz-adv-x="685" 
d="M158 754v-449q0 -43 0.5 -61t8.5 -51.5t24 -55.5q24 -33 66.5 -52.5t85.5 -19.5q41 0 81.5 18t66.5 49q17 21 26 51.5t10 51t1 58.5v12v449h84v-472q0 -72 -12.5 -119t-53.5 -90q-80 -86 -203 -86q-116 0 -195 77q-45 43 -59.5 93t-14.5 125v472h84zM343 1006
q40 0 68.5 -28.5t28.5 -68.5q0 -41 -28 -69.5t-69 -28.5t-69.5 28.5t-28.5 69.5q0 40 29 68.5t69 28.5zM343 956q-20 0 -34 -13.5t-14 -33.5t14 -34t34 -14t33.5 14t13.5 34t-13.5 33.5t-33.5 13.5z" />
    <glyph glyph-name="uring" unicode="&#x16f;" horiz-adv-x="512" 
d="M150 470v-262q0 -27 1.5 -46t8 -39.5t17.5 -33t31 -20.5t48 -8t48 8t31 20.5t17.5 33t8 39.5t1.5 46v262h80v-271q0 -212 -186 -212t-186 212v271h80zM254 747q40 0 68.5 -28.5t28.5 -68.5q0 -41 -28 -69.5t-69 -28.5t-69.5 28.5t-28.5 69.5q0 40 29 68.5t69 28.5z
M254 697q-20 0 -34 -13.5t-14 -33.5t14 -34t34 -14t33.5 14t13.5 34t-13.5 33.5t-33.5 13.5z" />
    <glyph glyph-name="Uhungarumlaut" unicode="&#x170;" horiz-adv-x="685" 
d="M158 754v-449q0 -43 0.5 -61t8.5 -51.5t24 -55.5q24 -33 66.5 -52.5t85.5 -19.5q41 0 81.5 18t66.5 49q17 21 26 51.5t10 51t1 58.5v12v449h84v-472q0 -72 -12.5 -119t-53.5 -90q-80 -86 -203 -86q-116 0 -195 77q-45 43 -59.5 93t-14.5 125v472h84zM369 1001l-95 -159
l-40 11l59 162zM526 1001l-95 -159l-40 11l59 162z" />
    <glyph glyph-name="uhungarumlaut" unicode="&#x171;" horiz-adv-x="512" 
d="M150 470v-262q0 -27 1.5 -46t8 -39.5t17.5 -33t31 -20.5t48 -8t48 8t31 20.5t17.5 33t8 39.5t1.5 46v262h80v-271q0 -212 -186 -212t-186 212v271h80zM294 742l-95 -159l-40 11l59 162zM451 742l-95 -159l-40 11l59 162z" />
    <glyph glyph-name="Uogonek" unicode="&#x172;" horiz-adv-x="685" 
d="M158 754v-449q0 -42 0.5 -60.5t8.5 -51.5t24 -56q24 -34 66 -53t86 -19q42 0 82 17.5t66 49.5q17 21 26 51.5t10 51t1 58.5v12v449h84v-472q0 -71 -12.5 -118.5t-53.5 -90.5q-57 -63 -145 -80q-21 -17 -32.5 -27.5t-24.5 -30t-13 -37.5q0 -50 53 -50q32 0 60 18l-8 -61
q-30 -15 -63 -15q-44 0 -76.5 25t-32.5 68q0 59 64 105q-109 5 -180 76q-45 43 -59.5 93t-14.5 125v472h84z" />
    <glyph glyph-name="uogonek" unicode="&#x173;" horiz-adv-x="512" 
d="M150 470v-262q0 -27 1.5 -46t8 -39.5t17.5 -33t31 -20.5t48 -8t48 8t31 20.5t17.5 33t8 39.5t1.5 46v262h80v-271q0 -171 -121 -204q-72 -53 -72 -97q0 -50 53 -50q32 0 60 18l-8 -61q-30 -15 -63 -15q-44 0 -76.5 25t-32.5 68q0 59 63 104q-175 4 -175 212v271h80z" />
    <glyph glyph-name="Wcircumflex" unicode="&#x174;" horiz-adv-x="1091" 
d="M104 754l198 -565l244 604l244 -604l198 565h91l-289 -793l-244 607l-244 -607l-289 793h91zM390 863l156 133l158 -133l-58 -45l-100 85l-99 -85z" />
    <glyph glyph-name="wcircumflex" unicode="&#x175;" horiz-adv-x="760" 
d="M94 470l139 -318l146 354l147 -354l140 318h91l-233 -503l-145 350l-145 -350l-231 503h91zM225 604l156 133l158 -133l-58 -45l-100 85l-99 -85z" />
    <glyph glyph-name="Ycircumflex" unicode="&#x176;" horiz-adv-x="593" 
d="M255 324l-247 430h97l192 -336l192 336h97l-247 -430v-324h-84v324zM139 863l156 133l158 -133l-58 -45l-100 85l-99 -85z" />
    <glyph glyph-name="ycircumflex" unicode="&#x177;" horiz-adv-x="498" 
d="M214 44l-216 426h93l166 -337l152 337h91l-347 -734h-91zM100 604l156 133l158 -133l-58 -45l-100 85l-99 -85z" />
    <glyph glyph-name="Ydieresis" unicode="&#x178;" horiz-adv-x="593" 
d="M255 324l-247 430h97l192 -336l192 336h97l-247 -430v-324h-84v324zM210 964q22 0 38 -16t16 -38t-16 -38t-38 -16t-38 16t-16 38t16 38t38 16zM407 964q23 0 38.5 -16t15.5 -38t-15.5 -38t-38.5 -16t-38.5 16t-15.5 38t15.5 38t38.5 16z" />
    <glyph glyph-name="Zacute" unicode="&#x179;" horiz-adv-x="586" 
d="M153 78h401v-78h-540l411 676h-359v78h499zM379 1003l84 -38l-153 -154l-50 28z" />
    <glyph glyph-name="zacute" unicode="&#x17a;" horiz-adv-x="519" 
d="M172 74h324v-74h-486l339 396h-276v74h437zM351 744l84 -38l-153 -154l-50 28z" />
    <glyph glyph-name="Zdotaccent" unicode="&#x17b;" horiz-adv-x="586" 
d="M153 78h401v-78h-540l411 676h-359v78h499zM310 975q23 0 38.5 -15.5t15.5 -38.5t-15.5 -38.5t-38.5 -15.5t-38.5 15.5t-15.5 38.5t15.5 38.5t38.5 15.5z" />
    <glyph glyph-name="zdotaccent" unicode="&#x17c;" horiz-adv-x="519" 
d="M172 74h324v-74h-486l339 396h-276v74h437zM292 716q23 0 38.5 -15.5t15.5 -38.5t-15.5 -38.5t-38.5 -15.5t-38.5 15.5t-15.5 38.5t15.5 38.5t38.5 15.5z" />
    <glyph glyph-name="Zcaron" unicode="&#x17d;" horiz-adv-x="586" 
d="M153 78h401v-78h-540l411 676h-359v78h499zM462 951l-156 -133l-158 133l58 45l100 -85l99 85z" />
    <glyph glyph-name="zcaron" unicode="&#x17e;" horiz-adv-x="519" 
d="M172 74h324v-74h-486l339 396h-276v74h437zM432 692l-156 -133l-158 133l58 45l100 -85l99 85z" />
    <glyph glyph-name="florin" unicode="&#x192;" 
d="M538 825l-15 -75q-25 11 -50 11q-47 0 -64 -32q-11 -23 -26 -91l-25 -136h120l-11 -68h-121l-58 -314q-24 -135 -54 -180q-55 -80 -179 -80l-50 4l16 75l34 -1q34 0 59.5 11t40 25t25.5 43.5t15 48.5t11 58l57 310h-82l11 68h84l28 158q15 85 51 131.5t115 46.5
q36 0 68 -13z" />
    <glyph glyph-name="Scommaaccent" unicode="&#x218;" horiz-adv-x="559" 
d="M485 650l-67 -43q-47 82 -130 82q-51 0 -88 -33t-37 -84q0 -23 10 -42t31 -33.5t35.5 -22.5t41.5 -20l50 -22q43 -19 71 -35.5t55.5 -41t41 -58.5t13.5 -77q0 -98 -69 -165.5t-168 -67.5q-90 0 -153.5 53.5t-81.5 141.5l82 23q8 -59 50 -99.5t101 -40.5q62 0 108.5 42.5
t46.5 104.5q0 25 -8.5 46.5t-19 34.5t-33.5 28t-36 21.5t-42 19.5l-46 20q-80 36 -122 78t-42 115q0 85 62 138.5t149 53.5q63 0 114 -30.5t81 -86.5zM220 -274v48q67 10 67 79h-47v90h102v-81q0 -61 -33.5 -95.5t-88.5 -40.5z" />
    <glyph glyph-name="scommaaccent" unicode="&#x219;" horiz-adv-x="399" 
d="M333 396l-67 -35q-9 20 -26 34t-38 14q-22 0 -40 -15t-18 -37q0 -9 2.5 -16.5t10 -14.5t13 -12t18.5 -11t19 -9t23 -10t23 -9q50 -21 79.5 -51t29.5 -84q0 -66 -46.5 -109.5t-112.5 -43.5q-59 0 -103 31.5t-63 87.5l71 30q17 -37 38 -56t58 -19q33 0 54.5 20t21.5 52
q0 29 -22 48t-53 31.5t-62 27t-53 42t-22 68.5q0 58 41 95.5t99 37.5q40 0 74.5 -24.5t50.5 -62.5zM133 -274v48q67 10 67 79h-47v90h102v-81q0 -61 -33.5 -95.5t-88.5 -40.5z" />
    <glyph glyph-name="uni021A" unicode="&#x21a;" horiz-adv-x="470" 
d="M276 676v-676h-84v676h-182v78h450v-78h-184zM161 -274v48q67 10 67 79h-47v90h102v-81q0 -61 -33.5 -95.5t-88.5 -40.5z" />
    <glyph glyph-name="uni021B" unicode="&#x21b;" horiz-adv-x="240" 
d="M160 396v-396h-80v396h-49v74h49v169h80v-169h84v-74h-84zM56 -274v48q67 10 67 79h-47v90h102v-81q0 -61 -33.5 -95.5t-88.5 -40.5z" />
    <glyph glyph-name="dotlessj" unicode="&#x237;" horiz-adv-x="262" 
d="M171 470v-734h-80v734h80z" />
    <glyph glyph-name="circumflex" unicode="&#x2c6;" horiz-adv-x="470" 
d="M78 604l156 133l158 -133l-58 -45l-100 85l-99 -85z" />
    <glyph glyph-name="caron" unicode="&#x2c7;" horiz-adv-x="470" 
d="M392 692l-156 -133l-158 133l58 45l100 -85l99 85z" />
    <glyph glyph-name="uni02C9" unicode="&#x2c9;" horiz-adv-x="499" 
d="M79 682h342v-68h-342v68z" />
    <glyph glyph-name="breve" unicode="&#x2d8;" horiz-adv-x="485" 
d="M79 716h69q26 -68 95 -68t95 68h69q-8 -61 -54.5 -98.5t-109.5 -37.5q-62 0 -109 37.5t-55 98.5z" />
    <glyph glyph-name="dotaccent" unicode="&#x2d9;" horiz-adv-x="358" 
d="M179 716q23 0 38.5 -15.5t15.5 -38.5t-15.5 -38.5t-38.5 -15.5t-38.5 15.5t-15.5 38.5t15.5 38.5t38.5 15.5z" />
    <glyph glyph-name="ring" unicode="&#x2da;" horiz-adv-x="350" 
d="M176 747q40 0 68.5 -28.5t28.5 -68.5q0 -41 -28 -69.5t-69 -28.5t-69.5 28.5t-28.5 69.5q0 40 29 68.5t69 28.5zM176 697q-20 0 -34 -13.5t-14 -33.5t14 -34t34 -14t33.5 14t13.5 34t-13.5 33.5t-33.5 13.5z" />
    <glyph glyph-name="ogonek" unicode="&#x2db;" horiz-adv-x="337" 
d="M161 0h64q-24 -18 -36.5 -28.5t-28 -32t-15.5 -41.5q0 -50 53 -50q32 0 60 18l-8 -61q-30 -15 -63 -15q-44 0 -76.5 25t-32.5 68q0 66 83 117z" />
    <glyph glyph-name="tilde" unicode="&#x2dc;" horiz-adv-x="506" 
d="M127 588l-49 39q45 79 102 79q35 0 81 -23q52 -23 64 -23q30 0 56 48l47 -38q-14 -35 -42.5 -58t-63.5 -23q-27 0 -75 23q-50 22 -70 22q-19 0 -29.5 -12t-20.5 -34z" />
    <glyph glyph-name="hungarumlaut" unicode="&#x2dd;" horiz-adv-x="467" 
d="M223 742l-95 -159l-40 11l59 162zM380 742l-95 -159l-40 11l59 162z" />
    <glyph glyph-name="uni0394" unicode="&#x394;" horiz-adv-x="714" 
d="M702 0h-688l294 755h91zM583 77l-230 590l-226 -590h456z" />
    <glyph glyph-name="uni03A9" unicode="&#x3a9;" horiz-adv-x="793" 
d="M730 0h-273v194q90 16 139.5 82.5t49.5 158.5q0 108 -73.5 180.5t-181.5 72.5q-109 0 -182.5 -72.5t-73.5 -180.5q0 -95 48 -159.5t139 -81.5v-194h-273v72h205v75q-96 29 -150.5 108.5t-54.5 182.5q0 140 100 233t242 93t240.5 -92t98.5 -233q0 -105 -53.5 -184
t-150.5 -108v-75h204v-72z" />
    <glyph glyph-name="uni03BC" unicode="&#x3bc;" horiz-adv-x="512" 
d="M150 470v-262q0 -27 1.5 -46t8 -39.5t17.5 -33t31 -20.5t48 -8t48 8t31 20.5t17.5 33t8 39.5t1.5 46v262h80v-271q0 -212 -186 -212q-29 0 -52.5 9t-53.5 38v-298h-80v734h80z" />
    <glyph glyph-name="pi" unicode="&#x3c0;" horiz-adv-x="571" 
d="M538 69v-57q-38 -19 -69 -19q-30 0 -48.5 9t-26.5 28.5t-10 37t-2 47.5v285h-205v-400h-76v400h-70v70h503v-70h-77v-286q0 -18 1.5 -28t10.5 -18.5t26 -8.5q22 0 43 10z" />
    <glyph glyph-name="endash" unicode="&#x2013;" horiz-adv-x="500" 
d="M0 278h500v-74h-500v74z" />
    <glyph glyph-name="emdash" unicode="&#x2014;" horiz-adv-x="1000" 
d="M130 278h740v-74h-740v74z" />
    <glyph glyph-name="quoteleft" unicode="&#x2018;" horiz-adv-x="289" 
d="M135 485l-74 27l114 255l54 -21z" />
    <glyph glyph-name="quoteright" unicode="&#x2019;" horiz-adv-x="289" 
d="M154 767l74 -27l-114 -255l-54 21z" />
    <glyph glyph-name="quotesinglbase" unicode="&#x201a;" horiz-adv-x="289" 
d="M155 110l74 -26l-114 -256l-54 22z" />
    <glyph glyph-name="quotedblleft" unicode="&#x201c;" horiz-adv-x="457" 
d="M303 485l-74 27l114 255l54 -21zM135 485l-74 27l114 255l54 -21z" />
    <glyph glyph-name="quotedblright" unicode="&#x201d;" horiz-adv-x="457" 
d="M155 767l74 -27l-114 -255l-54 21zM323 767l74 -27l-114 -255l-54 21z" />
    <glyph glyph-name="quotedblbase" unicode="&#x201e;" horiz-adv-x="464" 
d="M155 110l74 -26l-114 -256l-54 22zM330 110l74 -26l-114 -256l-54 22z" />
    <glyph glyph-name="dagger" unicode="&#x2020;" horiz-adv-x="592" 
d="M255 754h82v-185h167v-78h-167v-654h-82v654h-167v78h167v185z" />
    <glyph glyph-name="daggerdbl" unicode="&#x2021;" horiz-adv-x="592" 
d="M255 754h82v-185h167v-78h-167v-363h167v-78h-167v-213h-82v213h-167v78h167v363h-167v78h167v185z" />
    <glyph glyph-name="bullet" unicode="&#x2022;" horiz-adv-x="592" 
d="M296 189q-78 0 -133 55t-55 133q-1 79 54 134t134 55t134 -55t55 -134q0 -78 -55.5 -133t-133.5 -55z" />
    <glyph glyph-name="ellipsis" unicode="&#x2026;" horiz-adv-x="1000" 
d="M168 99q23 0 39.5 -16t16.5 -39t-16.5 -40t-39.5 -17t-39.5 17t-16.5 40t16.5 39t39.5 16zM500 99q23 0 39.5 -16t16.5 -39t-16.5 -40t-39.5 -17t-39.5 17t-16.5 40t16.5 39t39.5 16zM832 99q23 0 39.5 -16t16.5 -39t-16.5 -40t-39.5 -17t-39.5 17t-16.5 40t16.5 39
t39.5 16z" />
    <glyph glyph-name="perthousand" unicode="&#x2030;" horiz-adv-x="1212" 
d="M202 703q-42 0 -73 -29.5t-31 -71.5q0 -41 31 -70.5t73 -29.5t73 29.5t31 70.5q0 42 -31 71.5t-73 29.5zM599 767l40 -24l-436 -756l-43 26zM600 252q-42 0 -73 -29.5t-31 -71.5q0 -41 31 -70.5t73 -29.5t73 29.5t31 70.5q0 42 -31 71.5t-73 29.5zM202 767
q69 0 118.5 -48t49.5 -117q0 -68 -49.5 -116t-118.5 -48t-118.5 47.5t-49.5 116.5t49.5 117t118.5 48zM600 316q69 0 118.5 -48t49.5 -117q0 -68 -49.5 -116t-118.5 -48t-118.5 47.5t-49.5 116.5t49.5 117t118.5 48zM1010 316q69 0 118.5 -48t49.5 -117q0 -68 -49.5 -116
t-118.5 -48t-118.5 47.5t-49.5 116.5t49.5 117t118.5 48zM1010 252q-42 0 -73 -29.5t-31 -71.5q0 -41 31 -70.5t73 -29.5t73 29.5t31 70.5q0 42 -31 71.5t-73 29.5z" />
    <glyph glyph-name="guilsinglleft" unicode="&#x2039;" horiz-adv-x="330" 
d="M127 240l135 -166l-53 -41l-168 207l168 213l53 -42z" />
    <glyph glyph-name="guilsinglright" unicode="&#x203a;" horiz-adv-x="330" 
d="M68 74l135 166l-135 171l53 42l168 -213l-168 -207z" />
    <glyph glyph-name="fraction" unicode="&#x2044;" horiz-adv-x="161" 
d="M278 767l44 -24l-439 -756l-44 24z" />
    <glyph glyph-name="Euro" unicode="&#x20ac;" 
d="M575 729l-30 -73q-53 30 -132 30q-85 0 -145 -53t-81 -150h312l-22 -67h-300q-3 -15 -3 -47q0 -35 2 -42h280l-21 -66h-249q16 -95 77 -148t149 -53q82 0 141 40l33 -70q-70 -48 -181 -48q-126 0 -206 78t-101 201h-81l23 66h50q-1 11 -1 41q0 32 1 48h-72l23 67h57
q30 134 115.5 207.5t203.5 73.5q93 0 158 -35z" />
    <glyph glyph-name="afii61289" unicode="&#x2113;" horiz-adv-x="530" 
d="M418 89l29 -43q-64 -61 -145 -61q-64 0 -100 35.5t-36 103.5v108l-61 -62h-2l-31 44l94 90v272q0 86 39 137t101 51q56 0 89.5 -37.5t33.5 -102.5q0 -151 -184 -335v-151q0 -48 22.5 -68.5t54.5 -20.5q48 0 94 40h2zM359 619q0 39 -15 63t-38 24q-25 0 -43 -30t-18 -87
v-225q114 132 114 255z" />
    <glyph glyph-name="trademark" unicode="&#x2122;" horiz-adv-x="940" 
d="M905 754v-421h-60v361h-2l-144 -361h-39l-140 361h-2v-361h-60v421h101l121 -303l125 303h100zM377 754v-60h-140v-361h-60v361h-141v60h341z" />
    <glyph glyph-name="Omega" unicode="&#x2126;" horiz-adv-x="793" 
d="M730 0h-273v194q90 16 139.5 82.5t49.5 158.5q0 108 -73.5 180.5t-181.5 72.5q-109 0 -182.5 -72.5t-73.5 -180.5q0 -95 48 -159.5t139 -81.5v-194h-273v72h205v75q-96 29 -150.5 108.5t-54.5 182.5q0 140 100 233t242 93t240.5 -92t98.5 -233q0 -105 -53.5 -184
t-150.5 -108v-75h204v-72z" />
    <glyph glyph-name="estimated" unicode="&#x212e;" horiz-adv-x="600" 
d="M157 295h291v145q-63 60 -147 60t-144 -60v-145zM561 259h-404v-181q59 -59 145 -59q63 0 109 28.5t84 91.5l35 -21q-46 -73 -98 -104t-130 -31q-115 0 -186.5 79t-71.5 197q0 119 71 197.5t187 78.5q115 0 187 -77t72 -199z" />
    <glyph glyph-name="partialdiff" unicode="&#x2202;" horiz-adv-x="510" 
d="M468 361q0 -51 -5 -97.5t-20 -99t-39.5 -89.5t-67.5 -62t-99 -25q-92 0 -148 65.5t-56 159.5q0 91 54.5 152.5t144.5 61.5q94 0 161 -77q0 7 0.5 23t0.5 24q0 44 -8.5 87t-27 83.5t-54 65.5t-83.5 25q-54 0 -114 -46l-42 49q72 60 152 60q57 0 101.5 -22.5t72 -58
t45.5 -83.5t25 -96t7 -100zM389 274q-58 91 -149 91q-63 0 -98.5 -45.5t-35.5 -110.5q0 -63 35 -112t97 -49q40 0 70 22t46 58.5t24.5 72.5t10.5 73z" />
    <glyph glyph-name="Delta" unicode="&#x2206;" horiz-adv-x="714" 
d="M702 0h-688l294 755h91zM583 77l-230 590l-226 -590h456z" />
    <glyph glyph-name="product" unicode="&#x220f;" horiz-adv-x="719" 
d="M651 -214h-79v927h-425v-927h-79v1000h583v-1000z" />
    <glyph glyph-name="summation" unicode="&#x2211;" horiz-adv-x="615" 
d="M590 -214h-565v64l322 440l-309 431v65h540v-73h-437l300 -423l-319 -432h468v-72z" />
    <glyph glyph-name="minus" unicode="&#x2212;" 
d="M66 217v78h484v-78h-484z" />
    <glyph glyph-name="uni2215" unicode="&#x2215;" horiz-adv-x="161" 
d="M278 767l44 -24l-439 -756l-44 24z" />
    <glyph glyph-name="uni2219" unicode="&#x2219;" horiz-adv-x="308" 
d="M154 311q23 0 39.5 -16t16.5 -39t-16.5 -40t-39.5 -17t-39.5 17t-16.5 40t16.5 39t39.5 16z" />
    <glyph glyph-name="radical" unicode="&#x221a;" horiz-adv-x="504" 
d="M514 786l-210 -1000h-76l-161 334l-47 -23l-29 61l112 53l151 -317l183 892h77z" />
    <glyph glyph-name="infinity" unicode="&#x221e;" horiz-adv-x="760" 
d="M662 255q0 40 -21.5 65t-60.5 25q-12 0 -23.5 -3t-24 -9.5t-21.5 -11.5t-22.5 -16.5t-19 -16.5t-20 -18.5t-16.5 -15.5q29 -26 45.5 -40t47 -29.5t57.5 -15.5q37 0 58 24t21 62zM347 254q-95 90 -151 90q-37 0 -58 -26t-21 -63q0 -39 22 -62.5t61 -23.5q62 0 147 85z
M727 258q0 -70 -41 -116t-109 -46q-53 0 -96.5 28.5t-90.5 78.5q-2 -2 -16 -15.5t-17.5 -16.5t-16 -14t-17 -14.5t-16.5 -12t-19 -11.5t-18.5 -8.5t-21 -7.5t-21.5 -4t-24 -2q-68 0 -110 45t-42 114q0 68 41 113.5t108 45.5q38 0 75 -19t59 -38.5t56 -55.5q36 39 55 56.5
t56 37.5t75 20q68 0 109.5 -45t41.5 -113z" />
    <glyph glyph-name="integral" unicode="&#x222b;" horiz-adv-x="559" 
d="M424 729q0 -17 -11.5 -27.5t-29.5 -10.5t-28 12t-16 24t-13 12q-31 0 -31 -104q0 -20 1 -47t1 -31v-560q0 -210 -127 -210q-28 0 -50 13.5t-22 40.5q0 15 11 25.5t27 10.5q14 0 23 -7t12.5 -16t8.5 -16t11 -7q29 0 29 100v634q0 37 1.5 61.5t8 57.5t19.5 53t37.5 34.5
t58.5 14.5q28 0 53.5 -14.5t25.5 -42.5z" />
    <glyph glyph-name="approxequal" unicode="&#x2248;" 
d="M522 421h51q-7 -62 -39.5 -104t-91.5 -42q-47 0 -142 37q-101 35 -129 35q-30 0 -49.5 -22.5t-25.5 -54.5h-52q7 63 39 105.5t91 42.5q49 0 140 -36t133 -36q60 0 75 75zM521 236h52q-7 -63 -39.5 -105t-91.5 -42q-49 0 -142 37q-101 35 -129 35q-30 0 -49.5 -22.5
t-25.5 -54.5h-52q7 63 39.5 106t90.5 43q49 0 140 -36q89 -36 133 -36q59 0 74 75z" />
    <glyph glyph-name="notequal" unicode="&#x2260;" 
d="M543 114h-287l-76 -147l-63 33l60 114h-141v72h179l65 127h-244v72h283l77 148l63 -33l-61 -115h145v-72h-183l-66 -127h249v-72z" />
    <glyph glyph-name="lessequal" unicode="&#x2264;" 
d="M562 119l-508 184v75l508 186v-77l-408 -147l408 -144v-77zM562 7h-508v72h508v-72z" />
    <glyph glyph-name="greaterequal" unicode="&#x2265;" 
d="M562 303l-508 -184v77l409 144l-409 147v77l508 -186v-75zM562 7h-508v72h508v-72z" />
    <glyph glyph-name="lozenge" unicode="&#x25ca;" horiz-adv-x="593" 
d="M505 356l-173 -391h-73l-171 391l171 391h73zM428 356l-132 315l-131 -315l131 -315z" />
    <glyph glyph-name="grave.cap" unicode="&#xe300;" horiz-adv-x="358" 
d="M78 965l84 38l119 -164l-50 -28z" />
    <glyph glyph-name="acute.cap" unicode="&#xe301;" horiz-adv-x="358" 
d="M197 1003l84 -38l-153 -154l-50 28z" />
    <glyph glyph-name="circumflex.cap" unicode="&#xe302;" horiz-adv-x="470" 
d="M78 863l156 133l158 -133l-58 -45l-100 85l-99 -85z" />
    <glyph glyph-name="caron.cap" unicode="&#xe303;" horiz-adv-x="470" 
d="M392 951l-156 -133l-158 133l58 45l100 -85l99 85z" />
    <glyph glyph-name="tilde.cap" unicode="&#xe304;" horiz-adv-x="506" 
d="M127 847l-49 39q15 25 26.5 39.5t31.5 27t44 12.5q35 0 81 -23q52 -23 64 -23q31 0 56 48l47 -38q-15 -35 -43 -58t-63 -23q-27 0 -75 23q-50 22 -70 22q-13 0 -23 -7.5t-15 -15.5t-12 -23z" />
    <glyph glyph-name="dieresis.cap" unicode="&#xe305;" horiz-adv-x="467" 
d="M135 964q23 0 38.5 -15.5t15.5 -38.5t-15.5 -38.5t-38.5 -15.5t-38.5 15.5t-15.5 38.5t15.5 38.5t38.5 15.5zM332 964q23 0 38.5 -15.5t15.5 -38.5t-15.5 -38.5t-38.5 -15.5t-38.5 15.5t-15.5 38.5t15.5 38.5t38.5 15.5z" />
    <glyph glyph-name="macron.cap" unicode="&#xe306;" horiz-adv-x="499" 
d="M79 941h342v-68h-342v68z" />
    <glyph glyph-name="breve.cap" unicode="&#xe307;" horiz-adv-x="485" 
d="M79 975h69q26 -68 95 -68t95 68h69q-8 -61 -54.5 -98.5t-109.5 -37.5q-62 0 -109 37.5t-55 98.5z" />
    <glyph glyph-name="ring.cap" unicode="&#xe308;" horiz-adv-x="350" 
d="M176 1006q40 0 68.5 -28.5t28.5 -68.5q0 -41 -28 -69.5t-69 -28.5t-69.5 28.5t-28.5 69.5q0 40 29 68.5t69 28.5zM176 956q-20 0 -34 -13.5t-14 -33.5t14 -34t34 -14t33.5 14t13.5 34t-13.5 33.5t-33.5 13.5z" />
    <glyph glyph-name="hungarumlaut.cap" unicode="&#xe309;" horiz-adv-x="467" 
d="M223 1001l-95 -159l-40 11l59 162zM380 1001l-95 -159l-40 11l59 162z" />
    <glyph glyph-name="dotaccent.cap" unicode="&#xe30a;" horiz-adv-x="358" 
d="M179 975q23 0 38.5 -15.5t15.5 -38.5t-15.5 -38.5t-38.5 -15.5t-38.5 15.5t-15.5 38.5t15.5 38.5t38.5 15.5z" />
    <glyph glyph-name="caron.alt" unicode="&#xe30b;" horiz-adv-x="358" 
d="M249 735l-99 -188l-55 16l67 189z" />
    <glyph glyph-name="commaaccent" unicode="&#xe30c;" horiz-adv-x="330" 
d="M96 -274v48q67 10 67 79h-47v90h102v-81q0 -61 -33.5 -95.5t-88.5 -40.5z" />
    <glyph glyph-name="commaaccent.alt" unicode="&#xe30d;" horiz-adv-x="330" 
d="M234 798v-48q-67 -10 -67 -79h47v-90h-102v81q0 61 33.5 95.5t88.5 40.5z" />
    <glyph glyph-name="uniF8FF" unicode="&#xf8ff;" horiz-adv-x="512" 
d="M278 117h-56v67h56v-67zM271 234h-46l-2 17q0 56 13 81q15 28 46 59q30 28 40 45.5t10 37.5q0 36 -22.5 60.5t-53.5 24.5q-71 0 -82 -95l-50 8q6 69 42 103t93 34q55 0 89.5 -36t34.5 -95q0 -34 -13 -60t-50 -60q-37 -33 -43 -52q-6 -20 -6 -72zM50 50h412v617h-412v-617
zM0 718h512v-718h-512v718z" />
    </font>
</defs>
</svg>
